<?xml version="1.0" encoding="UTF-8" standalone="no"?>
<svg
   width="1727.3635"
   zoomAndPan="magnify"
   viewBox="0 0 1295.5226 919.43674"
   height="1225.9156"
   preserveAspectRatio="xMidYMid"
   version="1.0"
   id="svg311"
   xmlns="http://www.w3.org/2000/svg"
   xmlns:svg="http://www.w3.org/2000/svg">
  <defs
     id="defs132">
    <clipPath
       id="e8017c973c">
      <path
         d="M 365.73828,975.58594 H 1016.3672 V 1127.1445 H 365.73828 Z m 0,0"
         clip-rule="nonzero"
         id="path1" />
    </clipPath>
    <clipPath
       id="ce71e5555c">
      <path
         d="M 365.73828,1103.8945 V 998.83594 c 0,-12.83985 10.41016,-23.25 23.25,-23.25 h 604.07031 c 12.83981,0 23.25001,10.41015 23.25001,23.25 v 105.05856 c 0,12.8399 -10.4102,23.25 -23.25001,23.25 H 388.98828 c -12.83984,0 -23.25,-10.4101 -23.25,-23.25 z m 0,0"
         clip-rule="nonzero"
         id="path2" />
    </clipPath>
    <clipPath
       id="f032dd7ba4">
      <path
         d="M 0.738281,0.585938 H 651.36719 V 152.14453 H 0.738281 Z m 0,0"
         clip-rule="nonzero"
         id="path3" />
    </clipPath>
    <clipPath
       id="142f59ae2c">
      <path
         d="M 0.738281,128.89453 V 23.835938 c 0,-12.839844 10.410157,-23.25 23.25,-23.25 H 628.05859 c 12.83985,0 23.25,10.410156 23.25,23.25 V 128.89453 c 0,12.83984 -10.41015,23.25 -23.25,23.25 H 23.988281 c -12.839843,0 -23.25,-10.41016 -23.25,-23.25 z m 0,0"
         clip-rule="nonzero"
         id="path4" />
    </clipPath>
    <clipPath
       id="a22e685a0d">
      <rect
         x="0"
         width="652"
         y="0"
         height="153"
         id="rect4" />
    </clipPath>
    <clipPath
       id="6f45d4a0bd">
      <path
         d="M 365.75781,975.64453 H 1015.9883 V 1127.1445 H 365.75781 Z m 0,0"
         clip-rule="nonzero"
         id="path5" />
    </clipPath>
    <clipPath
       id="8029eebaa7">
      <path
         d="M 365.75781,1103.8945 V 998.84375 c 0,-12.83594 10.40625,-23.24609 23.2461,-23.24609 h 604.03125 c 12.83984,0 23.25004,10.41015 23.25004,23.24609 v 105.05075 c 0,12.8399 -10.4102,23.25 -23.25004,23.25 H 389.00391 c -12.83985,0 -23.2461,-10.4101 -23.2461,-23.25 z m 0,0"
         clip-rule="nonzero"
         id="path6" />
    </clipPath>
    <clipPath
       id="b0a8084f79">
      <path
         d="M 155.87109,817.72266 H 909.70703 V 993.32031 H 155.87109 Z m 0,0"
         clip-rule="nonzero"
         id="path7" />
    </clipPath>
    <clipPath
       id="d24e41129a">
      <path
         d="M 155.87109,970.07031 V 840.97266 c 0,-12.83985 10.41016,-23.25 23.25,-23.25 h 707.26953 c 12.83985,0 23.25,10.41015 23.25,23.25 v 129.09765 c 0,12.83985 -10.41015,23.25 -23.25,23.25 H 179.12109 c -12.83984,0 -23.25,-10.41015 -23.25,-23.25 z m 0,0"
         clip-rule="nonzero"
         id="path8" />
    </clipPath>
    <clipPath
       id="aabbf46bd1">
      <path
         d="M 0.871094,0.722656 H 754.70703 V 176.32031 H 0.871094 Z m 0,0"
         clip-rule="nonzero"
         id="path9" />
    </clipPath>
    <clipPath
       id="c57a379361">
      <path
         d="M 0.871094,153.07031 V 23.972656 c 0,-12.839844 10.410156,-23.25 23.25,-23.25 H 731.39062 c 12.83985,0 23.25,10.410156 23.25,23.25 V 153.07031 c 0,12.83985 -10.41015,23.25 -23.25,23.25 H 24.121094 c -12.839844,0 -23.25,-10.41015 -23.25,-23.25 z m 0,0"
         clip-rule="nonzero"
         id="path10" />
    </clipPath>
    <clipPath
       id="7f31f0636d">
      <rect
         x="0"
         width="755"
         y="0"
         height="177"
         id="rect10" />
    </clipPath>
    <clipPath
       id="b9ea5cd71e">
      <path
         d="m 155.87891,817.82031 h 753.74218 v 175.5 H 155.87891 Z m 0,0"
         clip-rule="nonzero"
         id="path11" />
    </clipPath>
    <clipPath
       id="be62489c15">
      <path
         d="M 155.87891,970.07031 V 840.97656 c 0,-12.83984 10.40625,-23.25 23.25,-23.25 h 707.25 c 12.83984,0 23.25,10.41016 23.25,23.25 v 129.09375 c 0,12.83985 -10.41016,23.25 -23.25,23.25 h -707.25 c -12.84375,0 -23.25,-10.41015 -23.25,-23.25 z m 0,0"
         clip-rule="nonzero"
         id="path12" />
    </clipPath>
    <clipPath
       id="3057f52a56">
      <path
         d="M 77.417969,669.03906 H 790.375 V 835.11328 H 77.417969 Z m 0,0"
         clip-rule="nonzero"
         id="path13" />
    </clipPath>
    <clipPath
       id="5141bb9919">
      <path
         d="M 77.417969,811.86328 V 692.28906 c 0,-12.83984 10.410156,-23.25 23.250001,-23.25 H 767.0625 c 12.83984,0 23.25,10.41016 23.25,23.25 v 119.57422 c 0,12.83984 -10.41016,23.25 -23.25,23.25 H 100.66797 c -12.839845,0 -23.250001,-10.41016 -23.250001,-23.25 z m 0,0"
         clip-rule="nonzero"
         id="path14" />
    </clipPath>
    <clipPath
       id="70a153a92a">
      <path
         d="M 0.417969,0.0390625 H 713.32031 V 166.11328 H 0.417969 Z m 0,0"
         clip-rule="nonzero"
         id="path15" />
    </clipPath>
    <clipPath
       id="61faa64801">
      <path
         d="M 0.417969,142.86328 V 23.289062 c 0,-12.839843 10.410156,-23.2499995 23.25,-23.2499995 H 690.0625 c 12.83984,0 23.25,10.4101565 23.25,23.2499995 V 142.86328 c 0,12.83984 -10.41016,23.25 -23.25,23.25 H 23.667969 c -12.839844,0 -23.25,-10.41016 -23.25,-23.25 z m 0,0"
         clip-rule="nonzero"
         id="path16" />
    </clipPath>
    <clipPath
       id="4385730801">
      <rect
         x="0"
         width="714"
         y="0"
         height="167"
         id="rect16" />
    </clipPath>
    <clipPath
       id="5a780e0826">
      <path
         d="M 77.433594,669.36328 H 790.66797 v 165.75 H 77.433594 Z m 0,0"
         clip-rule="nonzero"
         id="path17" />
    </clipPath>
    <clipPath
       id="fd41ec2f14">
      <path
         d="M 77.433594,811.86719 V 692.29687 c 0,-12.83984 10.410156,-23.25 23.249996,-23.25 h 666.35547 c 12.83985,0 23.25,10.41016 23.25,23.25 v 119.57032 c 0,12.83984 -10.41015,23.24609 -23.25,23.24609 H 100.68359 c -12.83984,0 -23.249996,-10.40625 -23.249996,-23.24609 z m 0,0"
         clip-rule="nonzero"
         id="path18" />
    </clipPath>
    <clipPath
       id="f99ac79eb4">
      <path
         d="M 186.66797,527.23047 H 863.13672 V 684.80469 H 186.66797 Z m 0,0"
         clip-rule="nonzero"
         id="path19" />
    </clipPath>
    <clipPath
       id="602ca16301">
      <path
         d="M 186.66797,661.55469 V 550.48047 c 0,-12.83985 10.41015,-23.25 23.25,-23.25 h 629.91015 c 12.83985,0 23.25,10.41015 23.25,23.25 v 111.07422 c 0,12.84375 -10.41015,23.25 -23.25,23.25 H 209.91797 c -12.83985,0 -23.25,-10.40625 -23.25,-23.25 z m 0,0"
         clip-rule="nonzero"
         id="path20" />
    </clipPath>
    <clipPath
       id="438ce087be">
      <path
         d="M 0.667969,0.230469 H 677.13672 V 157.80469 H 0.667969 Z m 0,0"
         clip-rule="nonzero"
         id="path21" />
    </clipPath>
    <clipPath
       id="f5e158e811">
      <path
         d="M 0.667969,134.55469 V 23.480469 c 0,-12.839844 10.410156,-23.25 23.25,-23.25 H 653.82812 c 12.83985,0 23.25,10.410156 23.25,23.25 V 134.55469 c 0,12.84375 -10.41015,23.25 -23.25,23.25 H 23.917969 c -12.839844,0 -23.25,-10.40625 -23.25,-23.25 z m 0,0"
         clip-rule="nonzero"
         id="path22" />
    </clipPath>
    <clipPath
       id="e81f29f33e">
      <rect
         x="0"
         width="678"
         y="0"
         height="158"
         id="rect22" />
    </clipPath>
    <clipPath
       id="4f65cb01b5">
      <path
         d="m 186.67969,527.30469 h 676.48828 v 157.5 H 186.67969 Z m 0,0"
         clip-rule="nonzero"
         id="path23" />
    </clipPath>
    <clipPath
       id="f5cdbd4dc3">
      <path
         d="M 186.67969,661.55859 V 550.48437 c 0,-12.83984 10.41015,-23.25 23.25,-23.25 H 839.8125 c 12.83984,0 23.25,10.41016 23.25,23.25 v 111.07422 c 0,12.83985 -10.41016,23.2461 -23.25,23.2461 H 209.92969 c -12.83985,0 -23.25,-10.40625 -23.25,-23.2461 z m 0,0"
         clip-rule="nonzero"
         id="path24" />
    </clipPath>
    <clipPath
       id="92163e6f40">
      <path
         d="m 758,209 h 475 v 920 H 758 Z m 0,0"
         clip-rule="nonzero"
         id="path25" />
    </clipPath>
    <clipPath
       id="f49c8324e8">
      <path
         d="m 751.98437,268.43359 190.32422,-65.21875 297.05081,866.87106 -190.3242,65.2188 z m 0,0"
         clip-rule="nonzero"
         id="path26" />
    </clipPath>
    <clipPath
       id="a207b7968a">
      <path
         d="M 773.97656,260.89844 920.3125,210.75 c 5.83594,-1.99609 12.22266,-1.59766 17.76172,1.11328 5.53906,2.71094 9.77344,7.51172 11.76953,13.34766 l 281.88285,822.60156 c 2,5.832 1.5976,12.2227 -1.1133,17.7578 -2.711,5.5391 -7.5117,9.7735 -13.3438,11.7735 l -146.3359,50.1445 c -5.8359,2 -12.2227,1.5976 -17.7617,-1.1133 -5.5391,-2.7109 -9.7735,-7.5117 -11.7696,-13.3437 L 759.51953,290.42969 c -2,-5.83594 -1.59766,-12.22266 1.11328,-17.76172 2.71094,-5.53906 7.51172,-9.77344 13.34375,-11.76953 z m 0,0"
         clip-rule="nonzero"
         id="path27" />
    </clipPath>
    <clipPath
       id="45720db366">
      <path
         d="M 0,0 H 475 V 920 H 0 Z m 0,0"
         clip-rule="nonzero"
         id="path28" />
    </clipPath>
    <clipPath
       id="7398f0bc91">
      <path
         d="M -6.015625,59.433594 184.30859,-5.785156 481.35937,861.08594 291.03516,926.30469 Z m 0,0"
         clip-rule="nonzero"
         id="path29" />
    </clipPath>
    <clipPath
       id="59c1a3ce53">
      <path
         d="M 15.976562,51.898438 162.3125,1.75 c 5.83594,-1.996094 12.22266,-1.597656 17.76172,1.113281 5.53906,2.710938 9.77344,7.511719 11.76953,13.347657 L 473.72656,838.8125 c 2,5.83203 1.59766,12.22266 -1.11328,17.75781 -2.71094,5.53906 -7.51172,9.77344 -13.34375,11.77344 l -146.33594,50.14453 c -5.83593,2 -12.22265,1.59766 -17.76172,-1.11328 -5.53906,-2.71094 -9.77343,-7.51172 -11.76953,-13.34375 L 1.519531,81.429688 c -2,-5.835938 -1.597656,-12.222657 1.113281,-17.761719 2.710938,-5.539063 7.511719,-9.773438 13.34375,-11.769531 z m 0,0"
         clip-rule="nonzero"
         id="path30" />
    </clipPath>
    <clipPath
       id="eb98a31a29">
      <rect
         x="0"
         width="475"
         y="0"
         height="920"
         id="rect30" />
    </clipPath>
    <clipPath
       id="efc76cd0d9">
      <path
         d="m 758,209 h 475 v 920 H 758 Z m 0,0"
         clip-rule="nonzero"
         id="path31" />
    </clipPath>
    <clipPath
       id="e308e6ab1b">
      <path
         d="m 751.98437,268.43359 190.14454,-65.15625 296.85549,866.29686 -190.1446,65.1602 z m 0,0"
         clip-rule="nonzero"
         id="path32" />
    </clipPath>
    <clipPath
       id="78b6f31b2d">
      <path
         d="m 751.98437,268.4375 190.35938,-65.23438 298.55855,871.26958 -190.3593,65.2343 z m 0,0"
         clip-rule="nonzero"
         id="path33" />
    </clipPath>
    <clipPath
       id="1c3c14aefb">
      <path
         d="M 773.97656,260.89844 920.3125,210.75391 c 5.83203,-2 12.22266,-1.59766 17.76172,1.11328 5.53515,2.71093 9.76953,7.51172 11.76953,13.34375 l 281.87895,822.59766 c 2,5.832 1.5976,12.2187 -1.1133,17.7578 -2.711,5.5391 -7.5117,9.7734 -13.3438,11.7734 l -146.3359,50.1446 c -5.832,1.9961 -12.2227,1.5976 -17.7578,-1.1133 -5.5391,-2.7109 -9.7735,-7.5117 -11.7735,-13.3477 L 759.51953,290.42969 c -1.99609,-5.83203 -1.59766,-12.22266 1.11328,-17.75782 2.71094,-5.53906 7.51172,-9.77343 13.34375,-11.77343 z m 0,0"
         clip-rule="nonzero"
         id="path34" />
    </clipPath>
    <clipPath
       id="621bf72373">
      <path
         d="m 1049,513 h 324 v 616 h -324 z m 0,0"
         clip-rule="nonzero"
         id="path35" />
    </clipPath>
    <clipPath
       id="3577d654e6">
      <path
         d="m 1043.6563,553.8125 135.4453,-46.625 200.1523,581.4727 -135.4453,46.6211 z m 0,0"
         clip-rule="nonzero"
         id="path36" />
    </clipPath>
    <clipPath
       id="e15eb6bc89">
      <path
         d="m 1065.6406,546.24609 91.4766,-31.48828 c 12.1406,-4.17969 25.375,2.27344 29.5508,14.41406 l 185,537.44923 c 4.1797,12.1406 -2.2735,25.3711 -14.4141,29.5508 l -91.4805,31.4883 c -12.1406,4.1796 -25.3711,-2.2735 -29.5507,-14.4141 l -185,-537.44923 c -4.1797,-12.14062 2.2734,-25.37109 14.4179,-29.55078 z m 0,0"
         clip-rule="nonzero"
         id="path37" />
    </clipPath>
    <clipPath
       id="6073fd88a5">
      <path
         d="M 0,0 H 324 V 616 H 0 Z m 0,0"
         clip-rule="nonzero"
         id="path38" />
    </clipPath>
    <clipPath
       id="0add6a30d8">
      <path
         d="m -5.34375,40.8125 135.44531,-46.625 200.15235,581.47266 -135.44532,46.62109 z m 0,0"
         clip-rule="nonzero"
         id="path39" />
    </clipPath>
    <clipPath
       id="fd0662cc44">
      <path
         d="M 16.640625,33.246094 108.11719,1.757812 c 12.14062,-4.179687 25.375,2.273438 29.55078,14.414063 l 185,537.449215 c 4.17969,12.14063 -2.27344,25.3711 -14.41406,29.55078 l -91.48047,31.48829 c -12.14063,4.17968 -25.3711,-2.27344 -29.55078,-14.41407 L 2.222656,62.796875 C -1.957031,50.65625 4.496094,37.425781 16.640625,33.246094 Z m 0,0"
         clip-rule="nonzero"
         id="path40" />
    </clipPath>
    <clipPath
       id="68b068d9d6">
      <rect
         x="0"
         width="324"
         y="0"
         height="616"
         id="rect40" />
    </clipPath>
    <clipPath
       id="f2ab67eade">
      <path
         d="m 1049,513 h 324 v 616 h -324 z m 0,0"
         clip-rule="nonzero"
         id="path41" />
    </clipPath>
    <clipPath
       id="3f55ad64a9">
      <path
         d="m 1043.6563,553.8125 135.4492,-46.625 200.1679,581.5156 -135.4492,46.6211 z m 0,0"
         clip-rule="nonzero"
         id="path42" />
    </clipPath>
    <clipPath
       id="a6d8948724">
      <path
         d="m 1043.6602,553.82812 137.5351,-47.34375 201.207,584.52733 -137.539,47.3438 z m 0,0"
         clip-rule="nonzero"
         id="path43" />
    </clipPath>
    <clipPath
       id="bc682b0638">
      <path
         d="m 1065.6445,546.26172 91.4727,-31.48828 c 12.1406,-4.17969 25.3711,2.27734 29.5508,14.41797 l 184.9883,537.41409 c 4.1796,12.1445 -2.2774,25.3711 -14.418,29.5508 l -91.4727,31.4882 c -12.1406,4.1797 -25.3711,-2.2773 -29.5508,-14.4179 L 1051.2266,575.8125 c -4.1797,-12.14063 2.2773,-25.37109 14.4179,-29.55078 z m 0,0"
         clip-rule="nonzero"
         id="path44" />
    </clipPath>
    <clipPath
       id="8622ab8025">
      <path
         d="m 396.57812,1005.625 h 485.32813 v 91.4883 H 396.57812 Z m 0,0"
         clip-rule="nonzero"
         id="path45" />
    </clipPath>
    <clipPath
       id="e28d8f8c04">
      <path
         d="m 396.57812,1073.8633 v -44.9883 c 0,-12.8438 10.40625,-23.25 23.25,-23.25 h 438.58985 c 12.83984,0 23.25,10.4062 23.25,23.25 v 44.9883 c 0,12.8398 -10.41016,23.25 -23.25,23.25 H 419.82812 c -12.84375,0 -23.25,-10.4102 -23.25,-23.25 z m 0,0"
         clip-rule="nonzero"
         id="path46" />
    </clipPath>
    <clipPath
       id="feb3633a41">
      <path
         d="M 0.578125,0.625 H 485.76172 V 92.113281 H 0.578125 Z m 0,0"
         clip-rule="nonzero"
         id="path47" />
    </clipPath>
    <clipPath
       id="6b194f250f">
      <path
         d="M 0.578125,68.863281 V 23.875 c 0,-12.84375 10.40625,-23.25 23.25,-23.25 H 462.41797 c 12.83984,0 23.25,10.40625 23.25,23.25 v 44.988281 c 0,12.839844 -10.41016,23.25 -23.25,23.25 H 23.828125 c -12.84375,0 -23.25,-10.410156 -23.25,-23.25 z m 0,0"
         clip-rule="nonzero"
         id="path48" />
    </clipPath>
    <clipPath
       id="97d1a57de8">
      <rect
         x="0"
         width="486"
         y="0"
         height="93"
         id="rect48" />
    </clipPath>
    <clipPath
       id="1150bf0afc">
      <path
         d="m 396.58203,1005.6133 h 485.24609 v 91.5 H 396.58203 Z m 0,0"
         clip-rule="nonzero"
         id="path49" />
    </clipPath>
    <clipPath
       id="bf937fa6bb">
      <path
         d="m 396.58203,1073.8633 v -44.9883 c 0,-12.8398 10.40625,-23.25 23.24609,-23.25 h 438.58204 c 12.83984,0 23.25,10.4102 23.25,23.25 v 44.9883 c 0,12.8398 -10.41016,23.25 -23.25,23.25 H 419.82812 c -12.83984,0 -23.24609,-10.4102 -23.24609,-23.25 z m 0,0"
         clip-rule="nonzero"
         id="path50" />
    </clipPath>
    <clipPath
       id="37903e08cf">
      <path
         d="m 892.26953,1005.625 h 91.49219 v 91.4922 h -91.49219 z m 0,0"
         clip-rule="nonzero"
         id="path51" />
    </clipPath>
    <clipPath
       id="5462e75368">
      <path
         d="m 892.26953,1051.3711 c 0,25.2617 20.48047,45.7461 45.74609,45.7461 25.26563,0 45.7461,-20.4844 45.7461,-45.7461 0,-25.2656 -20.48047,-45.7461 -45.7461,-45.7461 -25.26562,0 -45.74609,20.4805 -45.74609,45.7461 z m 0,0"
         clip-rule="nonzero"
         id="path52" />
    </clipPath>
    <clipPath
       id="9d2bd35d0f">
      <path
         d="M 0.269531,0.625 H 91.761719 V 92.117188 H 0.269531 Z m 0,0"
         clip-rule="nonzero"
         id="path53" />
    </clipPath>
    <clipPath
       id="f414caf4f2">
      <path
         d="m 0.269531,46.371094 c 0,25.261718 20.480469,45.746094 45.746094,45.746094 25.265625,0 45.746094,-20.484376 45.746094,-45.746094 C 91.761719,21.105469 71.28125,0.625 46.015625,0.625 20.75,0.625 0.269531,21.105469 0.269531,46.371094 Z m 0,0"
         clip-rule="nonzero"
         id="path54" />
    </clipPath>
    <clipPath
       id="79c10eb1e3">
      <rect
         x="0"
         width="92"
         y="0"
         height="93"
         id="rect54" />
    </clipPath>
    <clipPath
       id="6668d6b403">
      <path
         d="m 892.26953,1005.6289 h 91.48828 v 91.4883 h -91.48828 z m 0,0"
         clip-rule="nonzero"
         id="path55" />
    </clipPath>
    <clipPath
       id="a99199878a">
      <path
         d="m 892.26953,1051.3711 c 0,25.2656 20.48047,45.7461 45.74609,45.7461 25.26172,0 45.74219,-20.4805 45.74219,-45.7461 0,-25.2617 -20.48047,-45.7422 -45.74219,-45.7422 -25.26562,0 -45.74609,20.4805 -45.74609,45.7422 z m 0,0"
         clip-rule="nonzero"
         id="path56" />
    </clipPath>
    <clipPath
       id="4b320bb921">
      <path
         d="M 193.80078,850.86328 H 753.94922 V 958.51953 H 193.80078 Z m 0,0"
         clip-rule="nonzero"
         id="path57" />
    </clipPath>
    <clipPath
       id="4770d074c4">
      <path
         d="m 193.80078,935.26953 v -61.15625 c 0,-12.83984 10.40625,-23.25 23.25,-23.25 h 513.33594 c 12.83984,0 23.25,10.41016 23.25,23.25 v 61.15625 c 0,12.83984 -10.41016,23.25 -23.25,23.25 H 217.05078 c -12.84375,0 -23.25,-10.41016 -23.25,-23.25 z m 0,0"
         clip-rule="nonzero"
         id="path58" />
    </clipPath>
    <clipPath
       id="762278cb82">
      <path
         d="M 0.800781,0.863281 H 560.83984 V 108.51953 H 0.800781 Z m 0,0"
         clip-rule="nonzero"
         id="path59" />
    </clipPath>
    <clipPath
       id="a71dd2bc75">
      <path
         d="m 0.800781,85.269531 v -61.15625 c 0,-12.839843 10.40625,-23.25 23.25,-23.25 H 537.38672 c 12.83984,0 23.25,10.410157 23.25,23.25 v 61.15625 c 0,12.839844 -10.41016,23.249999 -23.25,23.249999 H 24.050781 c -12.84375,0 -23.25,-10.410155 -23.25,-23.249999 z m 0,0"
         clip-rule="nonzero"
         id="path60" />
    </clipPath>
    <clipPath
       id="7e6514a45f">
      <rect
         x="0"
         width="561"
         y="0"
         height="109"
         id="rect60" />
    </clipPath>
    <clipPath
       id="d9ff2dad0a">
      <path
         d="m 193.81641,850.51953 h 559.48437 v 108 H 193.81641 Z m 0,0"
         clip-rule="nonzero"
         id="path61" />
    </clipPath>
    <clipPath
       id="f6be904602">
      <path
         d="m 193.81641,935.26953 v -61.15234 c 0,-12.83594 10.41015,-23.2461 23.24609,-23.2461 h 513.30078 c 12.83984,0 23.24609,10.41016 23.24609,23.2461 v 61.15234 c 0,12.83984 -10.40625,23.25 -23.24609,23.25 H 217.0625 c -12.83594,0 -23.24609,-10.41016 -23.24609,-23.25 z m 0,0"
         clip-rule="nonzero"
         id="path62" />
    </clipPath>
    <clipPath
       id="76df82a327">
      <path
         d="M 765.92187,852.51562 H 871.92578 V 958.51953 H 765.92187 Z m 0,0"
         clip-rule="nonzero"
         id="path63" />
    </clipPath>
    <clipPath
       id="ac0467f602">
      <path
         d="m 765.92187,905.51953 c 0,29.27344 23.73047,53 53.00391,53 29.26953,0 53,-23.72656 53,-53 0,-29.27344 -23.73047,-53.00391 -53,-53.00391 -29.27344,0 -53.00391,23.73047 -53.00391,53.00391 z m 0,0"
         clip-rule="nonzero"
         id="path64" />
    </clipPath>
    <clipPath
       id="39b9a043d9">
      <path
         d="M 0.921875,0.515625 H 106.92578 V 106.51953 H 0.921875 Z m 0,0"
         clip-rule="nonzero"
         id="path65" />
    </clipPath>
    <clipPath
       id="b9b713307c">
      <path
         d="m 0.921875,53.519531 c 0,29.273438 23.730469,52.999999 53.003906,52.999999 29.269531,0 52.999999,-23.726561 52.999999,-52.999999 0,-29.273437 -23.730468,-53.003906 -52.999999,-53.003906 -29.273437,0 -53.003906,23.730469 -53.003906,53.003906 z m 0,0"
         clip-rule="nonzero"
         id="path66" />
    </clipPath>
    <clipPath
       id="7e3bab7f84">
      <rect
         x="0"
         width="107"
         y="0"
         height="107"
         id="rect66" />
    </clipPath>
    <clipPath
       id="0bc6199fa4">
      <path
         d="m 765.92187,852.76953 h 105.75 v 105.75 h -105.75 z m 0,0"
         clip-rule="nonzero"
         id="path67" />
    </clipPath>
    <clipPath
       id="2280666b66">
      <path
         d="m 765.92187,905.52344 c 0,29.26953 23.72657,52.99609 53,52.99609 29.26954,0 52.9961,-23.72656 52.9961,-52.99609 0,-29.26953 -23.72656,-53 -52.9961,-53 -29.27343,0 -53,23.73047 -53,53 z m 0,0"
         clip-rule="nonzero"
         id="path68" />
    </clipPath>
    <clipPath
       id="108b510e3d">
      <path
         d="M 112.24609,701.95312 H 642.85937 V 805.72266 H 112.24609 Z m 0,0"
         clip-rule="nonzero"
         id="path69" />
    </clipPath>
    <clipPath
       id="edc115b4d3">
      <path
         d="m 112.24609,782.47266 v -57.26954 c 0,-12.83984 10.41016,-23.25 23.25,-23.25 h 484.02735 c 12.83984,0 23.25,10.41016 23.25,23.25 v 57.26954 c 0,12.83984 -10.41016,23.25 -23.25,23.25 H 135.49609 c -12.83984,0 -23.25,-10.41016 -23.25,-23.25 z m 0,0"
         clip-rule="nonzero"
         id="path70" />
    </clipPath>
    <clipPath
       id="36f2966645">
      <path
         d="M 0.246094,0.953125 H 530.85937 V 104.72266 H 0.246094 Z m 0,0"
         clip-rule="nonzero"
         id="path71" />
    </clipPath>
    <clipPath
       id="e482846d74">
      <path
         d="M 0.246094,81.472656 V 24.203125 c 0,-12.839844 10.410156,-23.25 23.25,-23.25 H 507.52344 c 12.83984,0 23.25,10.410156 23.25,23.25 v 57.269531 c 0,12.839844 -10.41016,23.250004 -23.25,23.250004 H 23.496094 c -12.839844,0 -23.25,-10.41016 -23.25,-23.250004 z m 0,0"
         clip-rule="nonzero"
         id="path72" />
    </clipPath>
    <clipPath
       id="7f10b17880">
      <rect
         x="0"
         width="531"
         y="0"
         height="105"
         id="rect72" />
    </clipPath>
    <clipPath
       id="4ddceb51a6">
      <path
         d="m 112.25,702.22266 h 530.24609 v 103.5 H 112.25 Z m 0,0"
         clip-rule="nonzero"
         id="path73" />
    </clipPath>
    <clipPath
       id="8a1d4a8309">
      <path
         d="m 112.25,782.47266 v -57.26954 c 0,-12.83984 10.40625,-23.25 23.24609,-23.25 h 484.01953 c 12.83985,0 23.25,10.41016 23.25,23.25 v 57.26954 c 0,12.84375 -10.41015,23.25 -23.25,23.25 H 135.49609 c -12.83984,0 -23.24609,-10.40625 -23.24609,-23.25 z m 0,0"
         clip-rule="nonzero"
         id="path74" />
    </clipPath>
    <clipPath
       id="3335be1aee">
      <path
         d="M 654.39062,701.95703 H 754.64453 V 802.21094 H 654.39062 Z m 0,0"
         clip-rule="nonzero"
         id="path75" />
    </clipPath>
    <clipPath
       id="5f16d3392c">
      <path
         d="m 654.39062,752.08203 c 0,27.68359 22.44141,50.12891 50.125,50.12891 27.6875,0 50.12891,-22.44532 50.12891,-50.12891 0,-27.68359 -22.44141,-50.125 -50.12891,-50.125 -27.68359,0 -50.125,22.44141 -50.125,50.125 z m 0,0"
         clip-rule="nonzero"
         id="path76" />
    </clipPath>
    <clipPath
       id="fd552924d7">
      <path
         d="M 0.390625,0.957031 H 100.64453 V 101.21094 H 0.390625 Z m 0,0"
         clip-rule="nonzero"
         id="path77" />
    </clipPath>
    <clipPath
       id="f460802a3c">
      <path
         d="m 0.390625,51.082031 c 0,27.683594 22.441406,50.128909 50.125,50.128909 27.6875,0 50.128905,-22.445315 50.128905,-50.128909 0,-27.683593 -22.441405,-50.125 -50.128905,-50.125 -27.683594,0 -50.125,22.441407 -50.125,50.125 z m 0,0"
         clip-rule="nonzero"
         id="path78" />
    </clipPath>
    <clipPath
       id="65060c687b">
      <rect
         x="0"
         width="101"
         y="0"
         height="102"
         id="rect78" />
    </clipPath>
    <clipPath
       id="8ae85d40ae">
      <path
         d="M 654.39062,701.95703 H 754.64453 V 802.21094 H 654.39062 Z m 0,0"
         clip-rule="nonzero"
         id="path79" />
    </clipPath>
    <clipPath
       id="1bc8cd69e7">
      <path
         d="m 654.39062,752.08203 c 0,27.6875 22.44141,50.12891 50.125,50.12891 27.6836,0 50.12891,-22.44141 50.12891,-50.12891 0,-27.68359 -22.44531,-50.125 -50.12891,-50.125 -27.68359,0 -50.125,22.44141 -50.125,50.125 z m 0,0"
         clip-rule="nonzero"
         id="path80" />
    </clipPath>
    <clipPath
       id="0bbd7591bb">
      <path
         d="m 215.84375,558.45312 h 507.5625 v 98.58204 h -507.5625 z m 0,0"
         clip-rule="nonzero"
         id="path81" />
    </clipPath>
    <clipPath
       id="6f8177c6fe">
      <path
         d="m 215.84375,633.78516 v -52.08204 c 0,-12.84375 10.41016,-23.25 23.25,-23.25 h 460.74219 c 12.84375,0 23.25,10.40625 23.25,23.25 v 52.08204 c 0,12.84375 -10.40625,23.25 -23.25,23.25 H 239.09375 c -12.83984,0 -23.25,-10.40625 -23.25,-23.25 z m 0,0"
         clip-rule="nonzero"
         id="path82" />
    </clipPath>
    <clipPath
       id="0f8992884e">
      <path
         d="M 0.84375,0.453125 H 508.12109 V 99.035156 H 0.84375 Z m 0,0"
         clip-rule="nonzero"
         id="path83" />
    </clipPath>
    <clipPath
       id="74029519e5">
      <path
         d="M 0.84375,75.785156 V 23.703125 c 0,-12.84375 10.410156,-23.25 23.25,-23.25 h 460.74219 c 12.84375,0 23.25,10.40625 23.25,23.25 v 52.082031 c 0,12.84375 -10.40625,23.25 -23.25,23.25 H 24.09375 c -12.839844,0 -23.25,-10.40625 -23.25,-23.25 z m 0,0"
         clip-rule="nonzero"
         id="path84" />
    </clipPath>
    <clipPath
       id="129738cfa5">
      <rect
         x="0"
         width="509"
         y="0"
         height="100"
         id="rect84" />
    </clipPath>
    <clipPath
       id="7173618a6d">
      <path
         d="m 215.85937,558.78516 h 506.98438 v 98.25 H 215.85937 Z m 0,0"
         clip-rule="nonzero"
         id="path85" />
    </clipPath>
    <clipPath
       id="89adcfe8fe">
      <path
         d="m 215.85937,633.78906 v -52.08203 c 0,-12.83984 10.40625,-23.25 23.2461,-23.25 h 460.71094 c 12.83984,0 23.24609,10.41016 23.24609,23.25 v 52.08203 c 0,12.83985 -10.40625,23.2461 -23.24609,23.2461 H 239.10547 c -12.83985,0 -23.2461,-10.40625 -23.2461,-23.2461 z m 0,0"
         clip-rule="nonzero"
         id="path86" />
    </clipPath>
    <clipPath
       id="0d554e6f06">
      <path
         d="m 734.11328,558.45703 h 95.12109 v 95.125 h -95.12109 z m 0,0"
         clip-rule="nonzero"
         id="path87" />
    </clipPath>
    <clipPath
       id="bfc5aa5f7d">
      <path
         d="m 734.11328,606.01953 c 0,26.26563 21.29297,47.5625 47.55859,47.5625 26.26954,0 47.5625,-21.29687 47.5625,-47.5625 0,-26.26953 -21.29296,-47.5625 -47.5625,-47.5625 -26.26562,0 -47.55859,21.29297 -47.55859,47.5625 z m 0,0"
         clip-rule="nonzero"
         id="path88" />
    </clipPath>
    <clipPath
       id="169f05489f">
      <path
         d="m 0.113281,0.457031 h 95.121094 v 95.125 H 0.113281 Z m 0,0"
         clip-rule="nonzero"
         id="path89" />
    </clipPath>
    <clipPath
       id="7a30f2e04a">
      <path
         d="m 0.113281,48.019531 c 0,26.265625 21.292969,47.5625 47.558594,47.5625 26.269531,0 47.5625,-21.296875 47.5625,-47.5625 0,-26.269531 -21.292969,-47.5625 -47.5625,-47.5625 -26.265625,0 -47.558594,21.292969 -47.558594,47.5625 z m 0,0"
         clip-rule="nonzero"
         id="path90" />
    </clipPath>
    <clipPath
       id="8a7b86caab">
      <rect
         x="0"
         width="96"
         y="0"
         height="96"
         id="rect90" />
    </clipPath>
    <clipPath
       id="e70130d97f">
      <path
         d="m 734.11328,558.46094 h 95.12109 v 95.12109 h -95.12109 z m 0,0"
         clip-rule="nonzero"
         id="path91" />
    </clipPath>
    <clipPath
       id="a8ba0c0e82">
      <path
         d="m 734.11328,606.01953 c 0,26.26953 21.29297,47.5625 47.55859,47.5625 26.26563,0 47.5625,-21.29297 47.5625,-47.5625 0,-26.26562 -21.29687,-47.55859 -47.5625,-47.55859 -26.26562,0 -47.55859,21.29297 -47.55859,47.55859 z m 0,0"
         clip-rule="nonzero"
         id="path92" />
    </clipPath>
    <clipPath
       id="3a45fecc98">
      <path
         d="m 799,252 h 343 V 939 H 799 Z m 0,0"
         clip-rule="nonzero"
         id="path93" />
    </clipPath>
    <clipPath
       id="dd982395ad">
      <path
         d="m 793.37891,290.12109 129.53125,-44.38672 224.53514,655.24219 -129.5312,44.38672 z m 0,0"
         clip-rule="nonzero"
         id="path94" />
    </clipPath>
    <clipPath
       id="1ca8ece123">
      <path
         d="m 815.375,282.58594 85.54297,-29.3125 c 5.83203,-2 12.22265,-1.60157 17.75781,1.10937 5.53906,2.71485 9.77344,7.51172 11.77344,13.34766 L 1139.8711,878.875 c 1.9961,5.83203 1.5977,12.22266 -1.1133,17.76172 -2.7109,5.53515 -7.5117,9.76953 -13.3437,11.76953 l -85.543,29.3125 c -5.832,2 -12.2227,1.59766 -17.7617,-1.11328 -5.5352,-2.71094 -9.7696,-7.51172 -11.7696,-13.34375 L 800.91797,312.11719 c -2,-5.83594 -1.59766,-12.22266 1.11328,-17.76172 2.71094,-5.53906 7.51172,-9.77344 13.34375,-11.76953 z m 0,0"
         clip-rule="nonzero"
         id="path95" />
    </clipPath>
    <clipPath
       id="7874dc2a73">
      <path
         d="M 0,0 H 342.92187 V 687 H 0 Z m 0,0"
         clip-rule="nonzero"
         id="path96" />
    </clipPath>
    <clipPath
       id="8836ecb7db">
      <path
         d="M -5.621094,38.121094 123.91016,-6.265625 348.44531,648.97656 218.91406,693.36328 Z m 0,0"
         clip-rule="nonzero"
         id="path97" />
    </clipPath>
    <clipPath
       id="649bb069a5">
      <path
         d="m 16.375,30.585938 85.54297,-29.3125 c 5.83203,-2 12.22266,-1.601563 17.75781,1.109374 5.53906,2.714844 9.77344,7.511719 11.77344,13.347657 L 340.87109,626.875 c 1.9961,5.83203 1.59766,12.22266 -1.11328,17.76172 -2.71094,5.53515 -7.51172,9.76953 -13.34375,11.76953 l -85.54297,29.3125 c -5.83203,2 -12.22265,1.59766 -17.76172,-1.11328 -5.53515,-2.71094 -9.76953,-7.51172 -11.76953,-13.34375 L 1.917969,60.117188 C -0.0820312,54.28125 0.320312,47.894531 3.03125,42.355469 5.742188,36.816406 10.542969,32.582031 16.375,30.585938 Z m 0,0"
         clip-rule="nonzero"
         id="path98" />
    </clipPath>
    <clipPath
       id="823be99e17">
      <rect
         x="0"
         width="343"
         y="0"
         height="687"
         id="rect98" />
    </clipPath>
    <clipPath
       id="ca4f3f10a9">
      <path
         d="m 799,252 h 343 V 939 H 799 Z m 0,0"
         clip-rule="nonzero"
         id="path99" />
    </clipPath>
    <clipPath
       id="17450163f2">
      <path
         d="M 793.37891,290.12109 923.21875,245.62891 1147.625,900.5 1017.7852,944.98828 Z m 0,0"
         clip-rule="nonzero"
         id="path100" />
    </clipPath>
    <clipPath
       id="00c89cd3a3">
      <path
         d="m 793.38281,290.12891 131.78906,-45.16016 225.79693,658.93359 -131.7891,45.16016 z m 0,0"
         clip-rule="nonzero"
         id="path101" />
    </clipPath>
    <clipPath
       id="0410c57e4d">
      <path
         d="m 815.37891,282.58984 85.53906,-29.3125 c 5.83203,-1.99609 12.21875,-1.59765 17.75781,1.11328 5.53906,2.71094 9.77344,7.51172 11.77344,13.34766 l 209.41408,611.13281 c 2,5.83203 1.6015,12.21875 -1.1094,17.75782 -2.7109,5.53906 -7.5117,9.77343 -13.3476,11.77343 l -85.5391,29.3086 c -5.832,2 -12.2227,1.60156 -17.7578,-1.10938 -5.5391,-2.71094 -9.7735,-7.51172 -11.7735,-13.34765 L 800.91797,312.12109 c -1.9961,-5.83203 -1.59766,-12.22265 1.11328,-17.75781 2.71094,-5.53906 7.51172,-9.77344 13.34766,-11.77344 z m 0,0"
         clip-rule="nonzero"
         id="path102" />
    </clipPath>
    <clipPath
       id="ab96bf2b60">
      <path
         d="m 1047,934 h 123 v 129 h -123 z m 0,0"
         clip-rule="nonzero"
         id="path103" />
    </clipPath>
    <clipPath
       id="39edf42a21">
      <path
         d="M 1030.0352,956.87109 1144.9297,917.5 l 41.832,122.0742 -114.8945,39.3711 z m 0,0"
         clip-rule="nonzero"
         id="path104" />
    </clipPath>
    <clipPath
       id="88cf389930">
      <path
         d="m 1087.4805,937.1875 c -31.7266,10.87109 -48.0977,46.96484 -36.5664,80.6211 11.5351,33.6523 46.6015,52.1211 78.3281,41.2461 31.7266,-10.8711 48.0976,-46.9649 36.5664,-80.6172 -11.5313,-33.65625 -46.6016,-52.12109 -78.3281,-41.25 z m 0,0"
         clip-rule="nonzero"
         id="path105" />
    </clipPath>
    <clipPath
       id="e644ec8e60">
      <path
         d="M 0,0 H 123 V 129 H 0 Z m 0,0"
         clip-rule="nonzero"
         id="path106" />
    </clipPath>
    <clipPath
       id="40624175bf">
      <path
         d="M -16.964844,22.871094 97.929688,-16.5 139.76172,105.57422 24.867188,144.94531 Z m 0,0"
         clip-rule="nonzero"
         id="path107" />
    </clipPath>
    <clipPath
       id="a63d334910">
      <path
         d="M 40.480469,3.1875 C 8.753906,14.058594 -7.617188,50.152344 3.914062,83.808594 15.449219,117.46094 50.515625,135.92969 82.242188,125.05469 113.96875,114.18359 130.33984,78.089844 118.80859,44.4375 107.27734,10.78125 72.207031,-7.683594 40.480469,3.1875 Z m 0,0"
         clip-rule="nonzero"
         id="path108" />
    </clipPath>
    <clipPath
       id="ba34732cfe">
      <rect
         x="0"
         width="123"
         y="0"
         height="129"
         id="rect108" />
    </clipPath>
    <clipPath
       id="1aae5eeaf8">
      <path
         d="m 1047,934 h 123 v 129 h -123 z m 0,0"
         clip-rule="nonzero"
         id="path109" />
    </clipPath>
    <clipPath
       id="856f828cf3">
      <path
         d="m 1030.0352,956.87109 114.9375,-39.38672 41.8203,122.03513 -114.9414,39.3868 z m 0,0"
         clip-rule="nonzero"
         id="path110" />
    </clipPath>
    <clipPath
       id="7a31d864dd">
      <path
         d="m 1030.0352,956.875 116.1484,-39.80078 41.7578,121.85938 -116.1484,39.8008 z m 0,0"
         clip-rule="nonzero"
         id="path111" />
    </clipPath>
    <clipPath
       id="19928eae11">
      <path
         d="m 1087.4766,937.19141 c -31.7227,10.87109 -48.0938,46.96484 -36.5625,80.61329 11.5312,33.6523 46.5976,52.1172 78.3203,41.2461 31.7265,-10.8711 48.0937,-46.961 36.5625,-80.6133 -11.5313,-33.64844 -46.5938,-52.11719 -78.3203,-41.24609 z m 0,0"
         clip-rule="nonzero"
         id="path112" />
    </clipPath>
    <clipPath
       id="32237eafe4">
      <path
         d="m 1084,545 h 223 v 455 h -223 z m 0,0"
         clip-rule="nonzero"
         id="path113" />
    </clipPath>
    <clipPath
       id="c78b53552a">
      <path
         d="m 1078.6914,568.08203 83.0274,-28.57812 150.707,437.82812 -83.0235,28.57817 z m 0,0"
         clip-rule="nonzero"
         id="path114" />
    </clipPath>
    <clipPath
       id="ba05f8ba28">
      <path
         d="m 1100.6758,560.51562 39.0586,-13.44531 c 12.1406,-4.17969 25.3711,2.27735 29.5508,14.41797 l 135.4765,393.57422 c 4.1797,12.14062 -2.2773,25.37109 -14.4179,29.55078 l -39.0547,13.44531 c -12.1446,4.17971 -25.375,-2.27734 -29.5547,-14.41797 L 1086.2617,590.06641 c -4.1797,-12.14063 2.2735,-25.3711 14.4141,-29.55079 z m 0,0"
         clip-rule="nonzero"
         id="path115" />
    </clipPath>
    <clipPath
       id="609d42201e">
      <path
         d="M 0,0 H 223 V 455 H 0 Z m 0,0"
         clip-rule="nonzero"
         id="path116" />
    </clipPath>
    <clipPath
       id="6236ff69ff">
      <path
         d="M -5.308594,23.082031 77.71875,-5.496094 228.42578,432.33203 145.40234,460.91016 Z m 0,0"
         clip-rule="nonzero"
         id="path117" />
    </clipPath>
    <clipPath
       id="8737190f71">
      <path
         d="M 16.675781,15.515625 55.734375,2.070312 C 67.875,-2.109375 81.105469,4.347656 85.285156,16.488281 L 220.76172,410.0625 c 4.17969,12.14062 -2.27735,25.37109 -14.41797,29.55078 l -39.05469,13.44531 c -12.14453,4.17969 -25.375,-2.27734 -29.55469,-14.41797 L 2.261719,45.066406 C -1.917969,32.925781 4.535156,19.695312 16.675781,15.515625 Z m 0,0"
         clip-rule="nonzero"
         id="path118" />
    </clipPath>
    <clipPath
       id="05f02f3d48">
      <rect
         x="0"
         width="223"
         y="0"
         height="455"
         id="rect118" />
    </clipPath>
    <clipPath
       id="5f6907259c">
      <path
         d="m 1084,545 h 223 v 455 h -223 z m 0,0"
         clip-rule="nonzero"
         id="path119" />
    </clipPath>
    <clipPath
       id="362bd21c9a">
      <path
         d="m 1078.6914,568.08203 82.9727,-28.55859 150.6132,437.55078 -82.9687,28.56248 z m 0,0"
         clip-rule="nonzero"
         id="path120" />
    </clipPath>
    <clipPath
       id="8e727ae378">
      <path
         d="m 1078.6992,568.10547 83.5,-28.74219 152.1641,442.05859 -83.4961,28.74223 z m 0,0"
         clip-rule="nonzero"
         id="path121" />
    </clipPath>
    <clipPath
       id="32730b25ee">
      <path
         d="m 1100.6836,560.53906 39.0508,-13.44531 c 12.1406,-4.17578 25.3711,2.27734 29.5508,14.41797 l 135.4609,393.53515 c 4.1797,12.13672 -2.2773,25.36719 -14.418,29.54688 l -39.0508,13.44141 c -12.1406,4.17964 -25.371,-2.27344 -29.5468,-14.41407 L 1086.2656,590.08594 c -4.1758,-12.14063 2.2774,-25.3711 14.418,-29.54688 z m 0,0"
         clip-rule="nonzero"
         id="path122" />
    </clipPath>
    <clipPath
       id="00e691032d">
      <path
         d="m 1244,998 h 87 v 88 h -87 z m 0,0"
         clip-rule="nonzero"
         id="path123" />
    </clipPath>
    <clipPath
       id="1a2451b787">
      <path
         d="m 1232.4727,1015.1367 81.7656,-28.14451 28.1445,81.76171 -81.7656,28.1484 z m 0,0"
         clip-rule="nonzero"
         id="path124" />
    </clipPath>
    <clipPath
       id="75504d1209">
      <path
         d="m 1273.3555,1001.0625 c -22.5782,7.7734 -34.5821,32.375 -26.8125,54.957 7.7734,22.5782 32.3789,34.5821 54.957,26.8086 22.5781,-7.7734 34.582,-32.375 26.8086,-54.9531 -7.7695,-22.582 -32.375,-34.58594 -54.9531,-26.8125 z m 0,0"
         clip-rule="nonzero"
         id="path125" />
    </clipPath>
    <clipPath
       id="8e92d646d0">
      <path
         d="M 0,0 H 87 V 88 H 0 Z m 0,0"
         clip-rule="nonzero"
         id="path126" />
    </clipPath>
    <clipPath
       id="eed7dfea62">
      <path
         d="M -11.527344,17.136719 70.238281,-11.007812 98.382812,70.753906 16.617188,98.902344 Z m 0,0"
         clip-rule="nonzero"
         id="path127" />
    </clipPath>
    <clipPath
       id="7fc48287a5">
      <path
         d="M 29.355469,3.0625 C 6.777344,10.835938 -5.226562,35.4375 2.542969,58.019531 10.316406,80.597656 34.921875,92.601562 57.5,84.828125 80.078125,77.054688 92.082031,52.453125 84.308594,29.875 76.539062,7.292969 51.933594,-4.710938 29.355469,3.0625 Z m 0,0"
         clip-rule="nonzero"
         id="path128" />
    </clipPath>
    <clipPath
       id="076de0a14b">
      <rect
         x="0"
         width="87"
         y="0"
         height="88"
         id="rect128" />
    </clipPath>
    <clipPath
       id="1261633d95">
      <path
         d="m 1244,998 h 87 v 88 h -87 z m 0,0"
         clip-rule="nonzero"
         id="path129" />
    </clipPath>
    <clipPath
       id="afcb654a95">
      <path
         d="m 1232.4727,1015.1367 81.5507,-28.0742 28.0743,81.5547 -81.5547,28.0703 z m 0,0"
         clip-rule="nonzero"
         id="path130" />
    </clipPath>
    <clipPath
       id="e388c45c2f">
      <path
         d="m 1232.4727,1015.1367 81.7617,-28.14451 28.1445,81.76171 -81.7617,28.1445 z m 0,0"
         clip-rule="nonzero"
         id="path131" />
    </clipPath>
    <clipPath
       id="432bef742a">
      <path
         d="m 1273.3555,1001.0625 c -22.5821,7.7734 -34.5821,32.375 -26.8125,54.957 7.7734,22.5782 32.3789,34.5782 54.957,26.8086 22.5781,-7.7734 34.582,-32.375 26.8086,-54.957 -7.7734,-22.5781 -32.375,-34.57813 -54.9531,-26.8086 z m 0,0"
         clip-rule="nonzero"
         id="path132" />
    </clipPath>
  </defs>
  <g
     clip-path="url(#e8017c973c)"
     id="g138"
     transform="translate(-77.417969,-209.49603)">
    <g
       clip-path="url(#ce71e5555c)"
       id="g137">
      <g
         transform="translate(365,975)"
         id="g136">
        <g
           clip-path="url(#a22e685a0d)"
           id="g135">
          <g
             clip-path="url(#f032dd7ba4)"
             id="g134">
            <g
               clip-path="url(#142f59ae2c)"
               id="g133">
              <path
                 fill="#331d8e"
                 d="M 0.738281,152.14453 V 0.585938 H 651.36719 V 152.14453 Z m 0,0"
                 fill-opacity="1"
                 fill-rule="nonzero"
                 id="path133" />
            </g>
          </g>
        </g>
      </g>
    </g>
  </g>
  <g
     clip-path="url(#6f45d4a0bd)"
     id="g140"
     transform="translate(-77.417969,-209.49603)">
    <g
       clip-path="url(#8029eebaa7)"
       id="g139">
      <path
         stroke-linecap="butt"
         transform="matrix(0,-0.75,0.75,0,365.73747,1127.1441)"
         fill="none"
         stroke-linejoin="miter"
         d="M 30.999386,0.0271193 H 171.06711 c 17.11459,0 30.9948,13.8750017 30.9948,30.9947967 V 836.39704 c 0,17.11979 -13.88021,31 -30.9948,31 H 30.999386 c -17.119795,0 -31.000005113,-13.88021 -31.000005113,-31 V 31.021916 C -6.19113e-4,13.902121 13.879591,0.0271193 30.999386,0.0271193 Z m 0,0"
         stroke="#000000"
         stroke-width="48"
         stroke-opacity="1"
         stroke-miterlimit="4"
         id="path138" />
    </g>
  </g>
  <g
     clip-path="url(#b0a8084f79)"
     id="g146"
     transform="translate(-77.417969,-209.49603)">
    <g
       clip-path="url(#d24e41129a)"
       id="g145">
      <g
         transform="translate(155,817)"
         id="g144">
        <g
           clip-path="url(#7f31f0636d)"
           id="g143">
          <g
             clip-path="url(#aabbf46bd1)"
             id="g142">
            <g
               clip-path="url(#c57a379361)"
               id="g141">
              <path
                 fill="#331d8e"
                 d="M 0.871094,176.32031 V 0.722656 H 754.70703 V 176.32031 Z m 0,0"
                 fill-opacity="1"
                 fill-rule="nonzero"
                 id="path140" />
            </g>
          </g>
        </g>
      </g>
    </g>
  </g>
  <g
     clip-path="url(#b9ea5cd71e)"
     id="g148"
     transform="translate(-77.417969,-209.49603)">
    <g
       clip-path="url(#be62489c15)"
       id="g147">
      <path
         stroke-linecap="butt"
         transform="matrix(0,-0.75,0.75,0,155.87176,993.32017)"
         fill="none"
         stroke-linejoin="miter"
         d="M 30.999819,0.0095295 H 203.12483 c 17.1198,0 31.00001,13.8750015 31.00001,31.0000025 V 974.00961 c 0,17.1198 -13.88021,30.99999 -31.00001,30.99999 H 30.999819 c -17.119794,0 -31.000003077,-13.88019 -31.000003077,-30.99999 V 31.009532 C -1.84077e-4,13.884531 13.880025,0.0095295 30.999819,0.0095295 Z m 0,0"
         stroke="#000000"
         stroke-width="48"
         stroke-opacity="1"
         stroke-miterlimit="4"
         id="path146" />
    </g>
  </g>
  <g
     clip-path="url(#3057f52a56)"
     id="g154"
     transform="translate(-77.417969,-209.49603)">
    <g
       clip-path="url(#5141bb9919)"
       id="g153">
      <g
         transform="translate(77,669)"
         id="g152">
        <g
           clip-path="url(#4385730801)"
           id="g151">
          <g
             clip-path="url(#70a153a92a)"
             id="g150">
            <g
               clip-path="url(#61faa64801)"
               id="g149">
              <path
                 fill="#331d8e"
                 d="M 0.417969,166.11328 V 0.0390625 H 713.375 V 166.11328 Z m 0,0"
                 fill-opacity="1"
                 fill-rule="nonzero"
                 id="path148" />
            </g>
          </g>
        </g>
      </g>
    </g>
  </g>
  <g
     clip-path="url(#5a780e0826)"
     id="g156"
     transform="translate(-77.417969,-209.49603)">
    <g
       clip-path="url(#fd41ec2f14)"
       id="g155">
      <path
         stroke-linecap="butt"
         transform="matrix(0,-0.75,0.75,0,77.418461,835.11401)"
         fill="none"
         stroke-linejoin="miter"
         d="M 30.995771,0.0201769 H 190.42288 c 17.11979,0 31,13.8802101 31,31.0000051 V 919.49427 c 0,17.1198 -13.88021,31.00001 -31,31.00001 H 30.995771 c -17.119794,0 -30.994796575,-13.88021 -30.994796575,-31.00001 V 31.020182 C 9.74425e-4,13.900387 13.875977,0.0201769 30.995771,0.0201769 Z m 0,0"
         stroke="#000000"
         stroke-width="48"
         stroke-opacity="1"
         stroke-miterlimit="4"
         id="path154" />
    </g>
  </g>
  <g
     clip-path="url(#f99ac79eb4)"
     id="g162"
     transform="translate(-77.417969,-209.49603)">
    <g
       clip-path="url(#602ca16301)"
       id="g161">
      <g
         transform="translate(186,527)"
         id="g160">
        <g
           clip-path="url(#e81f29f33e)"
           id="g159">
          <g
             clip-path="url(#438ce087be)"
             id="g158">
            <g
               clip-path="url(#f5e158e811)"
               id="g157">
              <path
                 fill="#331d8e"
                 d="M 0.667969,157.80469 V 0.230469 H 677.13672 V 157.80469 Z m 0,0"
                 fill-opacity="1"
                 fill-rule="nonzero"
                 id="path156" />
            </g>
          </g>
        </g>
      </g>
    </g>
  </g>
  <g
     clip-path="url(#4f65cb01b5)"
     id="g164"
     transform="translate(-77.417969,-209.49603)">
    <g
       clip-path="url(#f5cdbd4dc3)"
       id="g163">
      <path
         stroke-linecap="butt"
         transform="matrix(0,-0.75,0.75,0,186.6679,684.80623)"
         fill="none"
         stroke-linejoin="miter"
         d="M 30.996844,0.0157182 H 179.09581 c 17.1198,0 31.00001,13.8802098 31.00001,31.0000028 V 870.85954 c 0,17.1198 -13.88021,31.00001 -31.00001,31.00001 H 30.996844 c -17.119793,0 -30.99479398,-13.88021 -30.99479398,-31.00001 V 31.015721 c 0,-17.119793 13.87500098,-31.0000028 30.99479398,-31.0000028 z m 0,0"
         stroke="#000000"
         stroke-width="48"
         stroke-opacity="1"
         stroke-miterlimit="4"
         id="path162" />
    </g>
  </g>
  <g
     clip-path="url(#92163e6f40)"
     id="g172"
     transform="translate(-77.417969,-209.49603)">
    <g
       clip-path="url(#f49c8324e8)"
       id="g171">
      <g
         clip-path="url(#a207b7968a)"
         id="g170">
        <g
           transform="translate(758,209)"
           id="g169">
          <g
             clip-path="url(#eb98a31a29)"
             id="g168">
            <g
               clip-path="url(#45720db366)"
               id="g167">
              <g
                 clip-path="url(#7398f0bc91)"
                 id="g166">
                <g
                   clip-path="url(#59c1a3ce53)"
                   id="g165">
                  <path
                     fill="#331d8e"
                     d="M -6.015625,59.433594 184.30859,-5.785156 481.35937,861.08594 291.03516,926.30469 Z m 0,0"
                     fill-opacity="1"
                     fill-rule="nonzero"
                     id="path164" />
                </g>
              </g>
            </g>
          </g>
        </g>
      </g>
    </g>
  </g>
  <g
     clip-path="url(#efc76cd0d9)"
     id="g176"
     transform="translate(-77.417969,-209.49603)">
    <g
       clip-path="url(#e308e6ab1b)"
       id="g175">
      <g
         clip-path="url(#78b6f31b2d)"
         id="g174">
        <g
           clip-path="url(#1c3c14aefb)"
           id="g173">
          <path
             stroke-linecap="butt"
             transform="matrix(0.7095,-0.243125,0.243125,0.7095,751.98306,268.43381)"
             fill="none"
             stroke-linejoin="miter"
             d="M 30.998089,0.00145087 237.25009,0.00201568 C 245.47067,7.81137e-5 253.35748,3.269734 259.17236,9.083233 c 5.80995,5.811811 9.07591,13.697387 9.07785,21.917967 l -10e-4,1159.4043 c 0.002,8.2206 -3.26603,16.1025 -9.07953,21.9173 -5.8135,5.8149 -13.69907,9.0809 -21.91965,9.0828 l -206.252001,-5e-4 c -8.218892,0 -16.10739,-3.2678 -21.917343,-9.0796 -5.814881,-5.8135 -9.080839309,-13.6991 -9.081088509,-21.9246 L -0.00109568,31.001571 C 0.00189384,22.782678 3.266623,14.894181 9.078433,9.084227 14.891933,3.269347 22.777508,0.00338844 30.998089,0.00145087 Z m 0,0"
             stroke="#000000"
             stroke-width="48"
             stroke-opacity="1"
             stroke-miterlimit="4"
             id="path172" />
        </g>
      </g>
    </g>
  </g>
  <g
     clip-path="url(#621bf72373)"
     id="g184"
     transform="translate(-77.417969,-209.49603)">
    <g
       clip-path="url(#3577d654e6)"
       id="g183">
      <g
         clip-path="url(#e15eb6bc89)"
         id="g182">
        <g
           transform="translate(1049,513)"
           id="g181">
          <g
             clip-path="url(#68b068d9d6)"
             id="g180">
            <g
               clip-path="url(#6073fd88a5)"
               id="g179">
              <g
                 clip-path="url(#0add6a30d8)"
                 id="g178">
                <g
                   clip-path="url(#fd0662cc44)"
                   id="g177">
                  <path
                     fill="#331d8e"
                     d="m -5.34375,40.8125 135.44531,-46.625 200.15235,581.47266 -135.44532,46.62109 z m 0,0"
                     fill-opacity="1"
                     fill-rule="nonzero"
                     id="path176" />
                </g>
              </g>
            </g>
          </g>
        </g>
      </g>
    </g>
  </g>
  <g
     clip-path="url(#f2ab67eade)"
     id="g188"
     transform="translate(-77.417969,-209.49603)">
    <g
       clip-path="url(#3f55ad64a9)"
       id="g187">
      <g
         clip-path="url(#a6d8948724)"
         id="g186">
        <g
           clip-path="url(#bc682b0638)"
           id="g185">
          <path
             stroke-linecap="butt"
             transform="matrix(0.709163,-0.244107,0.244107,0.709163,1043.6554,553.81246)"
             fill="none"
             stroke-linejoin="miter"
             d="M 30.999192,0.0230765 159.98677,0.0208687 c 17.11994,-8.403e-4 30.99791,13.8813493 30.99875,31.0012963 l 9e-4,757.815065 c -8.6e-4,17.12488 -13.88135,30.99791 -31.0013,30.99875 l -128.987573,0.002 C 13.8776,819.83903 -3.62494e-4,805.95684 -0.00120274,788.8369 L -0.00210477,31.021826 C -0.00294502,13.901879 13.879245,0.0239167 30.999192,0.0230765 Z m 0,0"
             stroke="#000000"
             stroke-width="48"
             stroke-opacity="1"
             stroke-miterlimit="4"
             id="path184" />
        </g>
      </g>
    </g>
  </g>
  <g
     clip-path="url(#8622ab8025)"
     id="g194"
     transform="translate(-77.417969,-209.49603)">
    <g
       clip-path="url(#e28d8f8c04)"
       id="g193">
      <g
         transform="translate(396,1005)"
         id="g192">
        <g
           clip-path="url(#97d1a57de8)"
           id="g191">
          <g
             clip-path="url(#feb3633a41)"
             id="g190">
            <g
               clip-path="url(#6b194f250f)"
               id="g189">
              <path
                 fill="#f8f9fa"
                 d="M 0.578125,92.113281 V 0.625 H 485.54687 v 91.488281 z m 0,0"
                 fill-opacity="1"
                 fill-rule="nonzero"
                 id="path188" />
            </g>
          </g>
        </g>
      </g>
    </g>
  </g>
  <g
     clip-path="url(#1150bf0afc)"
     id="g196"
     transform="translate(-77.417969,-209.49603)">
    <g
       clip-path="url(#bf937fa6bb)"
       id="g195">
      <path
         stroke-linecap="butt"
         transform="matrix(0,-0.75,0.75,0,396.57688,1097.1137)"
         fill="none"
         stroke-linejoin="miter"
         d="m 31.000574,0.00686195 h 59.98438 c 17.119796,0 31.000006,13.87500105 31.000006,30.99479405 V 615.77775 c 0,17.11979 -13.88021,31 -31.000006,31 h -59.98438 c -17.119793,0 -31.000002997,-13.88021 -31.000002997,-31 V 31.001656 C 5.71003e-4,13.881863 13.880781,0.00686195 31.000574,0.00686195 Z m 0,0"
         stroke="#000000"
         stroke-width="36"
         stroke-opacity="1"
         stroke-miterlimit="4"
         id="path194" />
    </g>
  </g>
  <g
     clip-path="url(#37903e08cf)"
     id="g202"
     transform="translate(-77.417969,-209.49603)">
    <g
       clip-path="url(#5462e75368)"
       id="g201">
      <g
         transform="translate(892,1005)"
         id="g200">
        <g
           clip-path="url(#79c10eb1e3)"
           id="g199">
          <g
             clip-path="url(#9d2bd35d0f)"
             id="g198">
            <g
               clip-path="url(#f414caf4f2)"
               id="g197">
              <path
                 fill="#331d8e"
                 d="M 0.269531,92.117188 V 0.625 h 91.492188 v 91.492188 z m 0,0"
                 fill-opacity="1"
                 fill-rule="nonzero"
                 id="path196" />
            </g>
          </g>
        </g>
      </g>
    </g>
  </g>
  <g
     clip-path="url(#6668d6b403)"
     id="g204"
     transform="translate(-77.417969,-209.49603)">
    <g
       clip-path="url(#a99199878a)"
       id="g203">
      <path
         stroke-linecap="butt"
         transform="matrix(0,-0.75,0.75,0,892.27016,1097.1154)"
         fill="none"
         stroke-linejoin="miter"
         d="m 60.992368,-8.33661e-4 c -33.687503,0 -60.99479733,27.307293661 -60.99479733,60.994796661 0,33.682295 27.30729433,60.989587 60.99479733,60.989587 33.682294,0 60.989592,-27.307292 60.989592,-60.989587 0,-33.687503 -27.307298,-60.994796661 -60.989592,-60.994796661 z m 0,0"
         stroke="#000000"
         stroke-width="36"
         stroke-opacity="1"
         stroke-miterlimit="4"
         id="path202" />
    </g>
  </g>
  <g
     clip-path="url(#4b320bb921)"
     id="g210"
     transform="translate(-77.417969,-209.49603)">
    <g
       clip-path="url(#4770d074c4)"
       id="g209">
      <g
         transform="translate(193,850)"
         id="g208">
        <g
           clip-path="url(#7e6514a45f)"
           id="g207">
          <g
             clip-path="url(#762278cb82)"
             id="g206">
            <g
               clip-path="url(#a71dd2bc75)"
               id="g205">
              <path
                 fill="#f8f9fa"
                 d="M 0.800781,108.51953 V 0.863281 H 560.53125 V 108.51953 Z m 0,0"
                 fill-opacity="1"
                 fill-rule="nonzero"
                 id="path204" />
            </g>
          </g>
        </g>
      </g>
    </g>
  </g>
  <g
     clip-path="url(#d9ff2dad0a)"
     id="g212"
     transform="translate(-77.417969,-209.49603)">
    <g
       clip-path="url(#f6be904602)"
       id="g211">
      <path
         stroke-linecap="butt"
         transform="matrix(0,-0.75,0.75,0,193.79944,958.51929)"
         fill="none"
         stroke-linejoin="miter"
         d="m 30.99968,0.0226144 h 81.53647 c 17.11458,0 30.99479,13.8802096 30.99479,30.9947946 V 715.41851 c 0,17.11979 -13.88021,30.99479 -30.99479,30.99479 H 30.99968 c -17.119793,0 -31.000002414,-13.875 -31.000002414,-30.99479 V 31.017409 C -3.22414e-4,13.902824 13.879887,0.0226144 30.99968,0.0226144 Z m 0,0"
         stroke="#000000"
         stroke-width="36"
         stroke-opacity="1"
         stroke-miterlimit="4"
         id="path210" />
    </g>
  </g>
  <g
     clip-path="url(#76df82a327)"
     id="g218"
     transform="translate(-77.417969,-209.49603)">
    <g
       clip-path="url(#ac0467f602)"
       id="g217">
      <g
         transform="translate(765,852)"
         id="g216">
        <g
           clip-path="url(#7e3bab7f84)"
           id="g215">
          <g
             clip-path="url(#39b9a043d9)"
             id="g214">
            <g
               clip-path="url(#b9b713307c)"
               id="g213">
              <path
                 fill="#331d8e"
                 d="M 0.921875,106.51953 V 0.515625 H 106.92578 V 106.51953 Z m 0,0"
                 fill-opacity="1"
                 fill-rule="nonzero"
                 id="path212" />
            </g>
          </g>
        </g>
      </g>
    </g>
  </g>
  <g
     clip-path="url(#0bc6199fa4)"
     id="g220"
     transform="translate(-77.417969,-209.49603)">
    <g
       clip-path="url(#2280666b66)"
       id="g219">
      <path
         stroke-linecap="butt"
         transform="matrix(0,-0.75,0.75,0,765.92229,958.52092)"
         fill="none"
         stroke-linejoin="miter"
         d="m 70.663318,-5.49838e-4 c -39.026045,0 -70.66146441,31.635419838 -70.66146441,70.666672838 0,39.026047 31.63541941,70.661467 70.66146441,70.661467 39.026042,0 70.666672,-31.63542 70.666672,-70.661467 0,-39.031253 -31.64063,-70.666672838 -70.666672,-70.666672838 z m 0,0"
         stroke="#000000"
         stroke-width="36"
         stroke-opacity="1"
         stroke-miterlimit="4"
         id="path218" />
    </g>
  </g>
  <g
     clip-path="url(#108b510e3d)"
     id="g226"
     transform="translate(-77.417969,-209.49603)">
    <g
       clip-path="url(#edc115b4d3)"
       id="g225">
      <g
         transform="translate(112,701)"
         id="g224">
        <g
           clip-path="url(#7f10b17880)"
           id="g223">
          <g
             clip-path="url(#36f2966645)"
             id="g222">
            <g
               clip-path="url(#e482846d74)"
               id="g221">
              <path
                 fill="#f8f9fa"
                 d="M 0.246094,104.72266 V 0.953125 H 530.85937 V 104.72266 Z m 0,0"
                 fill-opacity="1"
                 fill-rule="nonzero"
                 id="path220" />
            </g>
          </g>
        </g>
      </g>
    </g>
  </g>
  <g
     clip-path="url(#4ddceb51a6)"
     id="g228"
     transform="translate(-77.417969,-209.49603)">
    <g
       clip-path="url(#8a1d4a8309)"
       id="g227">
      <path
         stroke-linecap="butt"
         transform="matrix(0,-0.75,0.75,0,112.24674,805.72369)"
         fill="none"
         stroke-linejoin="miter"
         d="m 31.001376,0.00434069 h 76.359384 c 17.11979,0 31,13.87500131 31,30.99479431 V 676.35857 c 0,17.11979 -13.88021,31 -31,31 H 31.001376 c -17.125001,0 -31.0000022,-13.88021 -31.0000022,-31 V 30.999135 c 0,-17.119793 13.8750012,-30.99479431 31.0000022,-30.99479431 z m 0,0"
         stroke="#000000"
         stroke-width="36"
         stroke-opacity="1"
         stroke-miterlimit="4"
         id="path226" />
    </g>
  </g>
  <g
     clip-path="url(#3335be1aee)"
     id="g234"
     transform="translate(-77.417969,-209.49603)">
    <g
       clip-path="url(#5f16d3392c)"
       id="g233">
      <g
         transform="translate(654,701)"
         id="g232">
        <g
           clip-path="url(#65060c687b)"
           id="g231">
          <g
             clip-path="url(#fd552924d7)"
             id="g230">
            <g
               clip-path="url(#f460802a3c)"
               id="g229">
              <path
                 fill="#331d8e"
                 d="M 0.390625,101.21094 V 0.957031 H 100.64453 V 101.21094 Z m 0,0"
                 fill-opacity="1"
                 fill-rule="nonzero"
                 id="path228" />
            </g>
          </g>
        </g>
      </g>
    </g>
  </g>
  <g
     clip-path="url(#8ae85d40ae)"
     id="g236"
     transform="translate(-77.417969,-209.49603)">
    <g
       clip-path="url(#1bc8cd69e7)"
       id="g235">
      <path
         stroke-linecap="butt"
         transform="matrix(0,-0.75,0.75,0,654.3895,802.21016)"
         fill="none"
         stroke-linejoin="miter"
         d="m 66.837509,0.00150402 c -36.911461,0 -66.83854713,29.92187798 -66.83854713,66.83333898 0,36.911467 29.92708613,66.838547 66.83854713,66.838547 36.911461,0 66.833341,-29.92708 66.833341,-66.838547 0,-36.911461 -29.92188,-66.83333898 -66.833341,-66.83333898 z m 0,0"
         stroke="#000000"
         stroke-width="36"
         stroke-opacity="1"
         stroke-miterlimit="4"
         id="path234" />
    </g>
  </g>
  <g
     clip-path="url(#0bbd7591bb)"
     id="g242"
     transform="translate(-77.417969,-209.49603)">
    <g
       clip-path="url(#6f8177c6fe)"
       id="g241">
      <g
         transform="translate(215,558)"
         id="g240">
        <g
           clip-path="url(#129738cfa5)"
           id="g239">
          <g
             clip-path="url(#0f8992884e)"
             id="g238">
            <g
               clip-path="url(#74029519e5)"
               id="g237">
              <path
                 fill="#f8f9fa"
                 d="M 0.84375,99.035156 V 0.453125 h 507.17578 v 98.582031 z m 0,0"
                 fill-opacity="1"
                 fill-rule="nonzero"
                 id="path236" />
            </g>
          </g>
        </g>
      </g>
    </g>
  </g>
  <g
     clip-path="url(#7173618a6d)"
     id="g244"
     transform="translate(-77.417969,-209.49603)">
    <g
       clip-path="url(#89adcfe8fe)"
       id="g243">
      <path
         stroke-linecap="butt"
         transform="matrix(0,-0.75,0.75,0,215.84332,657.03707)"
         fill="none"
         stroke-linejoin="miter"
         d="m 30.997353,0.0214051 h 69.442717 c 17.11979,0 31,13.8750009 31,30.9947939 V 645.2975 c 0,17.1198 -13.88021,30.9948 -31,30.9948 H 30.997353 c -17.119793,0 -30.99479412,-13.875 -30.99479412,-30.9948 V 31.016199 C 0.00255888,13.896406 13.87756,0.0214051 30.997353,0.0214051 Z m 0,0"
         stroke="#000000"
         stroke-width="36"
         stroke-opacity="1"
         stroke-miterlimit="4"
         id="path242" />
    </g>
  </g>
  <g
     clip-path="url(#0d554e6f06)"
     id="g250"
     transform="translate(-77.417969,-209.49603)">
    <g
       clip-path="url(#bfc5aa5f7d)"
       id="g249">
      <g
         transform="translate(734,558)"
         id="g248">
        <g
           clip-path="url(#8a7b86caab)"
           id="g247">
          <g
             clip-path="url(#169f05489f)"
             id="g246">
            <g
               clip-path="url(#7a30f2e04a)"
               id="g245">
              <path
                 fill="#331d8e"
                 d="m 0.113281,95.582031 v -95.125 h 95.121094 v 95.125 z m 0,0"
                 fill-opacity="1"
                 fill-rule="nonzero"
                 id="path244" />
            </g>
          </g>
        </g>
      </g>
    </g>
  </g>
  <g
     clip-path="url(#e70130d97f)"
     id="g252"
     transform="translate(-77.417969,-209.49603)">
    <g
       clip-path="url(#a8ba0c0e82)"
       id="g251">
      <path
         stroke-linecap="butt"
         transform="matrix(0,-0.75,0.75,0,734.11135,653.58127)"
         fill="none"
         stroke-linejoin="miter"
         d="m 63.41565,0.00258018 c -35.026042,0 -63.41666806,28.39062582 -63.41666806,63.41145982 0,35.020834 28.39062606,63.41667 63.41666806,63.41667 35.020834,0 63.41146,-28.395836 63.41146,-63.41667 0,-35.020834 -28.390626,-63.41145982 -63.41146,-63.41145982 z m 0,0"
         stroke="#000000"
         stroke-width="36"
         stroke-opacity="1"
         stroke-miterlimit="4"
         id="path250" />
    </g>
  </g>
  <g
     clip-path="url(#3a45fecc98)"
     id="g260"
     transform="translate(-77.417969,-209.49603)">
    <g
       clip-path="url(#dd982395ad)"
       id="g259">
      <g
         clip-path="url(#1ca8ece123)"
         id="g258">
        <g
           transform="translate(799,252)"
           id="g257">
          <g
             clip-path="url(#823be99e17)"
             id="g256">
            <g
               clip-path="url(#7874dc2a73)"
               id="g255">
              <g
                 clip-path="url(#8836ecb7db)"
                 id="g254">
                <g
                   clip-path="url(#649bb069a5)"
                   id="g253">
                  <path
                     fill="#f8f9fa"
                     d="M -5.621094,38.121094 123.91016,-6.265625 348.44531,648.97656 218.91406,693.36328 Z m 0,0"
                     fill-opacity="1"
                     fill-rule="nonzero"
                     id="path252" />
                </g>
              </g>
            </g>
          </g>
        </g>
      </g>
    </g>
  </g>
  <g
     clip-path="url(#ca4f3f10a9)"
     id="g264"
     transform="translate(-77.417969,-209.49603)">
    <g
       clip-path="url(#17450163f2)"
       id="g263">
      <g
         clip-path="url(#00c89cd3a3)"
         id="g262">
        <g
           clip-path="url(#0410c57e4d)"
           id="g261">
          <path
             stroke-linecap="butt"
             transform="matrix(0.7095,-0.243125,0.243125,0.7095,793.38085,290.12134)"
             fill="none"
             stroke-linejoin="miter"
             d="M 31.002164,0.00830243 151.56497,0.00729067 c 8.21889,0.00298973 16.10246,3.26603033 21.91734,9.07953033 5.81488,5.8135 9.08084,13.699076 9.08278,21.919657 l -0.005,861.360672 c 0.002,8.22058 -3.2611,16.10415 -9.0746,21.91903 -5.8135,5.81488 -13.69908,9.08084 -21.92459,9.08109 l -120.561114,-0.004 c -8.220581,0.002 -16.109079,-3.26279 -21.919032,-9.0746 C 3.265873,908.47517 -8.5471e-5,900.5896 -3.34501e-4,892.36409 L -0.00195055,31.006735 C 0.00103914,22.787842 3.265768,14.899344 9.07758,9.089391 14.891079,3.27451 22.776655,0.00855146 31.002164,0.00830243 Z m 0,0"
             stroke="#000000"
             stroke-width="36"
             stroke-opacity="1"
             stroke-miterlimit="4"
             id="path260" />
        </g>
      </g>
    </g>
  </g>
  <g
     clip-path="url(#ab96bf2b60)"
     id="g272"
     transform="translate(-77.417969,-209.49603)">
    <g
       clip-path="url(#39edf42a21)"
       id="g271">
      <g
         clip-path="url(#88cf389930)"
         id="g270">
        <g
           transform="translate(1047,934)"
           id="g269">
          <g
             clip-path="url(#ba34732cfe)"
             id="g268">
            <g
               clip-path="url(#e644ec8e60)"
               id="g267">
              <g
                 clip-path="url(#40624175bf)"
                 id="g266">
                <g
                   clip-path="url(#a63d334910)"
                   id="g265">
                  <path
                     fill="#331d8e"
                     d="M -16.964844,22.871094 97.929688,-16.5 139.76172,105.57422 24.867188,144.94531 Z m 0,0"
                     fill-opacity="1"
                     fill-rule="nonzero"
                     id="path264" />
                </g>
              </g>
            </g>
          </g>
        </g>
      </g>
    </g>
  </g>
  <g
     clip-path="url(#1aae5eeaf8)"
     id="g276"
     transform="translate(-77.417969,-209.49603)">
    <g
       clip-path="url(#856f828cf3)"
       id="g275">
      <g
         clip-path="url(#7a31d864dd)"
         id="g274">
        <g
           clip-path="url(#19928eae11)"
           id="g273">
          <path
             stroke-linecap="butt"
             transform="matrix(0.7095,-0.243125,0.243125,0.7095,1030.0347,956.87181)"
             fill="none"
             stroke-linejoin="miter"
             d="M 80.959646,0.00405533 C 36.24807,0.00491523 -0.0018408,38.455238 -6.67813e-4,85.881202 -0.00118319,133.31209 36.248353,171.75888 80.959929,171.75802 125.67643,171.75885 161.91973,133.31176 161.92024,85.880874 161.91907,38.45491 125.67615,0.0048838 80.959646,0.00405533 Z m 0,0"
             stroke="#000000"
             stroke-width="36"
             stroke-opacity="1"
             stroke-miterlimit="4"
             id="path272" />
        </g>
      </g>
    </g>
  </g>
  <g
     clip-path="url(#32237eafe4)"
     id="g284"
     transform="translate(-77.417969,-209.49603)">
    <g
       clip-path="url(#c78b53552a)"
       id="g283">
      <g
         clip-path="url(#ba05f8ba28)"
         id="g282">
        <g
           transform="translate(1084,545)"
           id="g281">
          <g
             clip-path="url(#05f02f3d48)"
             id="g280">
            <g
               clip-path="url(#609d42201e)"
               id="g279">
              <g
                 clip-path="url(#6236ff69ff)"
                 id="g278">
                <g
                   clip-path="url(#8737190f71)"
                   id="g277">
                  <path
                     fill="#f8f9fa"
                     d="M -5.308594,23.082031 77.71875,-5.496094 228.3125,432.00781 145.28906,460.58594 Z m 0,0"
                     fill-opacity="1"
                     fill-rule="nonzero"
                     id="path276" />
                </g>
              </g>
            </g>
          </g>
        </g>
      </g>
    </g>
  </g>
  <g
     clip-path="url(#5f6907259c)"
     id="g288"
     transform="translate(-77.417969,-209.49603)">
    <g
       clip-path="url(#362bd21c9a)"
       id="g287">
      <g
         clip-path="url(#8e727ae378)"
         id="g286">
        <g
           clip-path="url(#32730b25ee)"
           id="g285">
          <path
             stroke-linecap="butt"
             transform="matrix(0.709163,-0.244107,0.244107,0.709163,1078.6931,568.08233)"
             fill="none"
             stroke-linejoin="miter"
             d="M 30.997736,0.0331131 86.065211,0.0289114 C 103.18346,0.0329959 117.06312,13.910261 117.06396,31.030208 l -10e-4,554.928782 c 0.003,17.11503 -13.87965,30.99299 -30.999599,30.99383 l -55.06578,-7.3e-4 C 13.877464,616.95294 -0.00219321,603.07567 0.00189128,585.95742 L -0.0018655,31.026938 C 0.002219,13.908686 13.879484,0.0290286 30.997736,0.0331131 Z m 0,0"
             stroke="#000000"
             stroke-width="36"
             stroke-opacity="1"
             stroke-miterlimit="4"
             id="path284" />
        </g>
      </g>
    </g>
  </g>
  <g
     clip-path="url(#00e691032d)"
     id="g296"
     transform="translate(-77.417969,-209.49603)">
    <g
       clip-path="url(#1a2451b787)"
       id="g295">
      <g
         clip-path="url(#75504d1209)"
         id="g294">
        <g
           transform="translate(1244,998)"
           id="g293">
          <g
             clip-path="url(#076de0a14b)"
             id="g292">
            <g
               clip-path="url(#8e92d646d0)"
               id="g291">
              <g
                 clip-path="url(#eed7dfea62)"
                 id="g290">
                <g
                   clip-path="url(#7fc48287a5)"
                   id="g289">
                  <path
                     fill="#331d8e"
                     d="M -11.527344,17.136719 70.238281,-11.007812 98.382812,70.753906 16.617188,98.902344 Z m 0,0"
                     fill-opacity="1"
                     fill-rule="nonzero"
                     id="path288" />
                </g>
              </g>
            </g>
          </g>
        </g>
      </g>
    </g>
  </g>
  <g
     clip-path="url(#1261633d95)"
     id="g300"
     transform="translate(-77.417969,-209.49603)">
    <g
       clip-path="url(#afcb654a95)"
       id="g299">
      <g
         clip-path="url(#e388c45c2f)"
         id="g298">
        <g
           clip-path="url(#432bef742a)"
           id="g297">
          <path
             stroke-linecap="butt"
             transform="matrix(0.709163,-0.244107,0.244107,0.709163,1232.4716,1015.1355)"
             fill="none"
             stroke-linejoin="miter"
             d="M 57.650879,-1.26893e-4 C 25.807525,2.476e-4 0.00244348,25.808668 -0.00210677,57.650326 -3.70928e-5,89.488754 25.808383,115.29384 57.650041,115.29839 89.48847,115.29632 115.29848,89.489592 115.2981,57.646239 115.29603,25.80781 89.487612,0.00272817 57.650879,-1.26893e-4 Z m 0,0"
             stroke="#000000"
             stroke-width="36"
             stroke-opacity="1"
             stroke-miterlimit="4"
             id="path296" />
        </g>
      </g>
    </g>
  </g>
  <path
     stroke-linecap="butt"
     fill="none"
     stroke-linejoin="miter"
     d="M 393.57813,880.16021 V 803.58207"
     stroke="#000000"
     stroke-width="10.5"
     stroke-opacity="1"
     stroke-miterlimit="4"
     id="path300" />
  <path
     stroke-linecap="butt"
     fill="none"
     stroke-linejoin="miter"
     d="M 455.21875,880.16021 V 803.58207"
     stroke="#000000"
     stroke-width="10.5"
     stroke-opacity="1"
     stroke-miterlimit="4"
     id="path301" />
  <path
     stroke-linecap="butt"
     fill="none"
     stroke-linejoin="miter"
     d="M 199.10937,740.39068 V 651.66802"
     stroke="#000000"
     stroke-width="10.5"
     stroke-opacity="1"
     stroke-miterlimit="4"
     id="path302" />
  <path
     stroke-linecap="butt"
     fill="none"
     stroke-linejoin="miter"
     d="M 271.82813,740.39068 V 651.66802"
     stroke="#000000"
     stroke-width="10.5"
     stroke-opacity="1"
     stroke-miterlimit="4"
     id="path303" />
  <path
     stroke-linecap="butt"
     fill="none"
     stroke-linejoin="miter"
     d="M 113.08203,586.19929 V 502.28522"
     stroke="#000000"
     stroke-width="10.5"
     stroke-opacity="1"
     stroke-miterlimit="4"
     id="path304" />
  <path
     stroke-linecap="butt"
     fill="none"
     stroke-linejoin="miter"
     d="M 182.88672,584.53912 V 500.62896"
     stroke="#000000"
     stroke-width="10.5"
     stroke-opacity="1"
     stroke-miterlimit="4"
     id="path305" />
  <path
     stroke-linecap="butt"
     fill="none"
     stroke-linejoin="miter"
     d="M 213.08593,438.82038 V 359.19927"
     stroke="#000000"
     stroke-width="10.5"
     stroke-opacity="1"
     stroke-miterlimit="4"
     id="path306" />
  <path
     stroke-linecap="butt"
     fill="none"
     stroke-linejoin="miter"
     d="M 282.78125,436.336 V 356.71489"
     stroke="#000000"
     stroke-width="10.5"
     stroke-opacity="1"
     stroke-miterlimit="4"
     id="path307" />
  <path
     stroke-linecap="butt"
     fill="none"
     stroke-linejoin="miter"
     d="M 757.48829,178.461 873.83596,136.98046"
     stroke="#000000"
     stroke-width="10.5"
     stroke-opacity="1"
     stroke-miterlimit="4"
     id="path308" />
  <path
     stroke-linecap="butt"
     fill="none"
     stroke-linejoin="miter"
     d="m 789.46875,267.91022 115.668,-39.91792"
     stroke="#000000"
     stroke-width="10.5"
     stroke-opacity="1"
     stroke-miterlimit="4"
     id="path309" />
  <path
     stroke-linecap="butt"
     fill="none"
     stroke-linejoin="miter"
     d="m 1033.1406,426.46491 68.4375,-23.55863"
     stroke="#000000"
     stroke-width="10.5"
     stroke-opacity="1"
     stroke-miterlimit="4"
     id="path310" />
  <path
     stroke-linecap="butt"
     fill="none"
     stroke-linejoin="miter"
     d="m 1051.0859,481.94538 68.4375,-23.55864"
     stroke="#000000"
     stroke-width="10.5"
     stroke-opacity="1"
     stroke-miterlimit="4"
     id="path311" />
</svg>
