<svg xmlns="http://www.w3.org/2000/svg" xmlns:xlink="http://www.w3.org/1999/xlink" width="2000" zoomAndPan="magnify" viewBox="0 0 1500 1499.999933" height="2000" preserveAspectRatio="xMidYMid meet" version="1.0"><defs><filter x="0%" y="0%" width="100%" height="100%" id="5ab84ed434"><feColorMatrix values="0 0 0 0 1 0 0 0 0 1 0 0 0 0 1 0 0 0 1 0" color-interpolation-filters="sRGB"/></filter><mask id="085fafd97b"><g filter="url(#5ab84ed434)"><rect x="-150" width="1800" fill="#000000" y="-149.999993" height="1799.99992" fill-opacity="0.4"/></g></mask><clipPath id="bf9aef735a"><path d="M 0.535156 0.261719 L 1207.332031 0.261719 L 1207.332031 31.015625 L 0.535156 31.015625 Z M 0.535156 0.261719 " clip-rule="nonzero"/></clipPath><clipPath id="f51f1be6eb"><path d="M 603.886719 0.261719 C 270.664062 0.261719 0.535156 7.144531 0.535156 15.640625 C 0.535156 24.132812 270.664062 31.015625 603.886719 31.015625 C 937.105469 31.015625 1207.234375 24.132812 1207.234375 15.640625 C 1207.234375 7.144531 937.105469 0.261719 603.886719 0.261719 Z M 603.886719 0.261719 " clip-rule="nonzero"/></clipPath><clipPath id="8c4e9116ec"><path d="M 0.535156 0.261719 L 1207.28125 0.261719 L 1207.28125 31.015625 L 0.535156 31.015625 Z M 0.535156 0.261719 " clip-rule="nonzero"/></clipPath><clipPath id="9fc2a095bc"><path d="M 603.886719 0.261719 C 270.664062 0.261719 0.535156 7.144531 0.535156 15.640625 C 0.535156 24.132812 270.664062 31.015625 603.886719 31.015625 C 937.105469 31.015625 1207.234375 24.132812 1207.234375 15.640625 C 1207.234375 7.144531 937.105469 0.261719 603.886719 0.261719 Z M 603.886719 0.261719 " clip-rule="nonzero"/></clipPath><clipPath id="462f55e34a"><rect x="0" width="1208" y="0" height="32"/></clipPath><clipPath id="67a444bf2a"><rect x="0" width="1208" y="0" height="32"/></clipPath><clipPath id="d743ccafa0"><path d="M 365.738281 975.585938 L 1016.367188 975.585938 L 1016.367188 1127.144531 L 365.738281 1127.144531 Z M 365.738281 975.585938 " clip-rule="nonzero"/></clipPath><clipPath id="a8e9e14564"><path d="M 365.738281 1103.894531 L 365.738281 998.835938 C 365.738281 985.996094 376.148438 975.585938 388.988281 975.585938 L 993.058594 975.585938 C 1005.898438 975.585938 1016.308594 985.996094 1016.308594 998.835938 L 1016.308594 1103.894531 C 1016.308594 1116.734375 1005.898438 1127.144531 993.058594 1127.144531 L 388.988281 1127.144531 C 376.148438 1127.144531 365.738281 1116.734375 365.738281 1103.894531 Z M 365.738281 1103.894531 " clip-rule="nonzero"/></clipPath><clipPath id="ee3f90510c"><path d="M 0.738281 0.585938 L 651.367188 0.585938 L 651.367188 152.144531 L 0.738281 152.144531 Z M 0.738281 0.585938 " clip-rule="nonzero"/></clipPath><clipPath id="0763811e0a"><path d="M 0.738281 128.894531 L 0.738281 23.835938 C 0.738281 10.996094 11.148438 0.585938 23.988281 0.585938 L 628.058594 0.585938 C 640.898438 0.585938 651.308594 10.996094 651.308594 23.835938 L 651.308594 128.894531 C 651.308594 141.734375 640.898438 152.144531 628.058594 152.144531 L 23.988281 152.144531 C 11.148438 152.144531 0.738281 141.734375 0.738281 128.894531 Z M 0.738281 128.894531 " clip-rule="nonzero"/></clipPath><clipPath id="ee18665d1f"><rect x="0" width="652" y="0" height="153"/></clipPath><clipPath id="d5fa8419eb"><path d="M 365.757812 975.644531 L 1015.988281 975.644531 L 1015.988281 1127.144531 L 365.757812 1127.144531 Z M 365.757812 975.644531 " clip-rule="nonzero"/></clipPath><clipPath id="d87b526d31"><path d="M 365.757812 1103.894531 L 365.757812 998.84375 C 365.757812 986.007812 376.164062 975.597656 389.003906 975.597656 L 993.035156 975.597656 C 1005.875 975.597656 1016.285156 986.007812 1016.285156 998.84375 L 1016.285156 1103.894531 C 1016.285156 1116.734375 1005.875 1127.144531 993.035156 1127.144531 L 389.003906 1127.144531 C 376.164062 1127.144531 365.757812 1116.734375 365.757812 1103.894531 Z M 365.757812 1103.894531 " clip-rule="nonzero"/></clipPath><clipPath id="eec6d50992"><path d="M 155.871094 817.722656 L 909.707031 817.722656 L 909.707031 993.320312 L 155.871094 993.320312 Z M 155.871094 817.722656 " clip-rule="nonzero"/></clipPath><clipPath id="fa47a73d6f"><path d="M 155.871094 970.070312 L 155.871094 840.972656 C 155.871094 828.132812 166.28125 817.722656 179.121094 817.722656 L 886.390625 817.722656 C 899.230469 817.722656 909.640625 828.132812 909.640625 840.972656 L 909.640625 970.070312 C 909.640625 982.910156 899.230469 993.320312 886.390625 993.320312 L 179.121094 993.320312 C 166.28125 993.320312 155.871094 982.910156 155.871094 970.070312 Z M 155.871094 970.070312 " clip-rule="nonzero"/></clipPath><clipPath id="1b8de11ad3"><path d="M 0.871094 0.722656 L 754.707031 0.722656 L 754.707031 176.320312 L 0.871094 176.320312 Z M 0.871094 0.722656 " clip-rule="nonzero"/></clipPath><clipPath id="da60440af1"><path d="M 0.871094 153.070312 L 0.871094 23.972656 C 0.871094 11.132812 11.28125 0.722656 24.121094 0.722656 L 731.390625 0.722656 C 744.230469 0.722656 754.640625 11.132812 754.640625 23.972656 L 754.640625 153.070312 C 754.640625 165.910156 744.230469 176.320312 731.390625 176.320312 L 24.121094 176.320312 C 11.28125 176.320312 0.871094 165.910156 0.871094 153.070312 Z M 0.871094 153.070312 " clip-rule="nonzero"/></clipPath><clipPath id="98b14a6719"><rect x="0" width="755" y="0" height="177"/></clipPath><clipPath id="e1adb08bf9"><path d="M 155.878906 817.820312 L 909.621094 817.820312 L 909.621094 993.320312 L 155.878906 993.320312 Z M 155.878906 817.820312 " clip-rule="nonzero"/></clipPath><clipPath id="38c6a9a21f"><path d="M 155.878906 970.070312 L 155.878906 840.976562 C 155.878906 828.136719 166.285156 817.726562 179.128906 817.726562 L 886.378906 817.726562 C 899.21875 817.726562 909.628906 828.136719 909.628906 840.976562 L 909.628906 970.070312 C 909.628906 982.910156 899.21875 993.320312 886.378906 993.320312 L 179.128906 993.320312 C 166.285156 993.320312 155.878906 982.910156 155.878906 970.070312 Z M 155.878906 970.070312 " clip-rule="nonzero"/></clipPath><clipPath id="75fd9d82c6"><path d="M 77.417969 669.039062 L 790.375 669.039062 L 790.375 835.113281 L 77.417969 835.113281 Z M 77.417969 669.039062 " clip-rule="nonzero"/></clipPath><clipPath id="2a7148d238"><path d="M 77.417969 811.863281 L 77.417969 692.289062 C 77.417969 679.449219 87.828125 669.039062 100.667969 669.039062 L 767.0625 669.039062 C 779.902344 669.039062 790.3125 679.449219 790.3125 692.289062 L 790.3125 811.863281 C 790.3125 824.703125 779.902344 835.113281 767.0625 835.113281 L 100.667969 835.113281 C 87.828125 835.113281 77.417969 824.703125 77.417969 811.863281 Z M 77.417969 811.863281 " clip-rule="nonzero"/></clipPath><clipPath id="2f1a5f46b5"><path d="M 0.417969 0.0390625 L 713.320312 0.0390625 L 713.320312 166.113281 L 0.417969 166.113281 Z M 0.417969 0.0390625 " clip-rule="nonzero"/></clipPath><clipPath id="db1b26cb9a"><path d="M 0.417969 142.863281 L 0.417969 23.289062 C 0.417969 10.449219 10.828125 0.0390625 23.667969 0.0390625 L 690.0625 0.0390625 C 702.902344 0.0390625 713.3125 10.449219 713.3125 23.289062 L 713.3125 142.863281 C 713.3125 155.703125 702.902344 166.113281 690.0625 166.113281 L 23.667969 166.113281 C 10.828125 166.113281 0.417969 155.703125 0.417969 142.863281 Z M 0.417969 142.863281 " clip-rule="nonzero"/></clipPath><clipPath id="9e69825f16"><rect x="0" width="714" y="0" height="167"/></clipPath><clipPath id="4d1e6285fe"><path d="M 77.433594 669.363281 L 790.667969 669.363281 L 790.667969 835.113281 L 77.433594 835.113281 Z M 77.433594 669.363281 " clip-rule="nonzero"/></clipPath><clipPath id="0f79b8f108"><path d="M 77.433594 811.867188 L 77.433594 692.296875 C 77.433594 679.457031 87.84375 669.046875 100.683594 669.046875 L 767.039062 669.046875 C 779.878906 669.046875 790.289062 679.457031 790.289062 692.296875 L 790.289062 811.867188 C 790.289062 824.707031 779.878906 835.113281 767.039062 835.113281 L 100.683594 835.113281 C 87.84375 835.113281 77.433594 824.707031 77.433594 811.867188 Z M 77.433594 811.867188 " clip-rule="nonzero"/></clipPath><clipPath id="db3ac8f383"><path d="M 186.667969 527.230469 L 863.136719 527.230469 L 863.136719 684.804688 L 186.667969 684.804688 Z M 186.667969 527.230469 " clip-rule="nonzero"/></clipPath><clipPath id="6cc103fd03"><path d="M 186.667969 661.554688 L 186.667969 550.480469 C 186.667969 537.640625 197.078125 527.230469 209.917969 527.230469 L 839.828125 527.230469 C 852.667969 527.230469 863.078125 537.640625 863.078125 550.480469 L 863.078125 661.554688 C 863.078125 674.398438 852.667969 684.804688 839.828125 684.804688 L 209.917969 684.804688 C 197.078125 684.804688 186.667969 674.398438 186.667969 661.554688 Z M 186.667969 661.554688 " clip-rule="nonzero"/></clipPath><clipPath id="a6339ebd9c"><path d="M 0.667969 0.230469 L 677.136719 0.230469 L 677.136719 157.804688 L 0.667969 157.804688 Z M 0.667969 0.230469 " clip-rule="nonzero"/></clipPath><clipPath id="6869821492"><path d="M 0.667969 134.554688 L 0.667969 23.480469 C 0.667969 10.640625 11.078125 0.230469 23.917969 0.230469 L 653.828125 0.230469 C 666.667969 0.230469 677.078125 10.640625 677.078125 23.480469 L 677.078125 134.554688 C 677.078125 147.398438 666.667969 157.804688 653.828125 157.804688 L 23.917969 157.804688 C 11.078125 157.804688 0.667969 147.398438 0.667969 134.554688 Z M 0.667969 134.554688 " clip-rule="nonzero"/></clipPath><clipPath id="4c260406f8"><rect x="0" width="678" y="0" height="158"/></clipPath><clipPath id="b01d37e6fc"><path d="M 186.679688 527.304688 L 863.167969 527.304688 L 863.167969 684.804688 L 186.679688 684.804688 Z M 186.679688 527.304688 " clip-rule="nonzero"/></clipPath><clipPath id="1f77726d13"><path d="M 186.679688 661.558594 L 186.679688 550.484375 C 186.679688 537.644531 197.089844 527.234375 209.929688 527.234375 L 839.8125 527.234375 C 852.652344 527.234375 863.0625 537.644531 863.0625 550.484375 L 863.0625 661.558594 C 863.0625 674.398438 852.652344 684.804688 839.8125 684.804688 L 209.929688 684.804688 C 197.089844 684.804688 186.679688 674.398438 186.679688 661.558594 Z M 186.679688 661.558594 " clip-rule="nonzero"/></clipPath><clipPath id="a5ec96b205"><path d="M 758 209 L 1233 209 L 1233 1129 L 758 1129 Z M 758 209 " clip-rule="nonzero"/></clipPath><clipPath id="27d8e86986"><path d="M 751.984375 268.433594 L 942.308594 203.214844 L 1239.359375 1070.085938 L 1049.035156 1135.304688 Z M 751.984375 268.433594 " clip-rule="nonzero"/></clipPath><clipPath id="e28feef5d3"><path d="M 773.976562 260.898438 L 920.3125 210.75 C 926.148438 208.753906 932.535156 209.152344 938.074219 211.863281 C 943.613281 214.574219 947.847656 219.375 949.84375 225.210938 L 1231.726562 1047.8125 C 1233.726562 1053.644531 1233.324219 1060.035156 1230.613281 1065.570312 C 1227.902344 1071.109375 1223.101562 1075.34375 1217.269531 1077.34375 L 1070.933594 1127.488281 C 1065.097656 1129.488281 1058.710938 1129.085938 1053.171875 1126.375 C 1047.632812 1123.664062 1043.398438 1118.863281 1041.402344 1113.03125 L 759.519531 290.429688 C 757.519531 284.59375 757.921875 278.207031 760.632812 272.667969 C 763.34375 267.128906 768.144531 262.894531 773.976562 260.898438 Z M 773.976562 260.898438 " clip-rule="nonzero"/></clipPath><clipPath id="c30e3b40af"><path d="M 0 0 L 475 0 L 475 920 L 0 920 Z M 0 0 " clip-rule="nonzero"/></clipPath><clipPath id="8d8842e854"><path d="M -6.015625 59.433594 L 184.308594 -5.785156 L 481.359375 861.085938 L 291.035156 926.304688 Z M -6.015625 59.433594 " clip-rule="nonzero"/></clipPath><clipPath id="8ed68aa3dc"><path d="M 15.976562 51.898438 L 162.3125 1.75 C 168.148438 -0.246094 174.535156 0.152344 180.074219 2.863281 C 185.613281 5.574219 189.847656 10.375 191.84375 16.210938 L 473.726562 838.8125 C 475.726562 844.644531 475.324219 851.035156 472.613281 856.570312 C 469.902344 862.109375 465.101562 866.34375 459.269531 868.34375 L 312.933594 918.488281 C 307.097656 920.488281 300.710938 920.085938 295.171875 917.375 C 289.632812 914.664062 285.398438 909.863281 283.402344 904.03125 L 1.519531 81.429688 C -0.480469 75.59375 -0.078125 69.207031 2.632812 63.667969 C 5.34375 58.128906 10.144531 53.894531 15.976562 51.898438 Z M 15.976562 51.898438 " clip-rule="nonzero"/></clipPath><clipPath id="45a94fc54f"><rect x="0" width="475" y="0" height="920"/></clipPath><clipPath id="918c7eab79"><path d="M 758 209 L 1233 209 L 1233 1129 L 758 1129 Z M 758 209 " clip-rule="nonzero"/></clipPath><clipPath id="3fa91e2772"><path d="M 751.984375 268.433594 L 942.128906 203.277344 L 1238.984375 1069.574219 L 1048.839844 1134.734375 Z M 751.984375 268.433594 " clip-rule="nonzero"/></clipPath><clipPath id="45808d7634"><path d="M 751.984375 268.4375 L 942.34375 203.203125 L 1240.902344 1074.472656 L 1050.542969 1139.707031 Z M 751.984375 268.4375 " clip-rule="nonzero"/></clipPath><clipPath id="65af9d0427"><path d="M 773.976562 260.898438 L 920.3125 210.753906 C 926.144531 208.753906 932.535156 209.15625 938.074219 211.867188 C 943.609375 214.578125 947.84375 219.378906 949.84375 225.210938 L 1231.722656 1047.808594 C 1233.722656 1053.640625 1233.320312 1060.027344 1230.609375 1065.566406 C 1227.898438 1071.105469 1223.097656 1075.339844 1217.265625 1077.339844 L 1070.929688 1127.484375 C 1065.097656 1129.480469 1058.707031 1129.082031 1053.171875 1126.371094 C 1047.632812 1123.660156 1043.398438 1118.859375 1041.398438 1113.023438 L 759.519531 290.429688 C 757.523438 284.597656 757.921875 278.207031 760.632812 272.671875 C 763.34375 267.132812 768.144531 262.898438 773.976562 260.898438 Z M 773.976562 260.898438 " clip-rule="nonzero"/></clipPath><clipPath id="998672f580"><path d="M 1049 513 L 1373 513 L 1373 1129 L 1049 1129 Z M 1049 513 " clip-rule="nonzero"/></clipPath><clipPath id="91a95710db"><path d="M 1043.65625 553.8125 L 1179.101562 507.1875 L 1379.253906 1088.660156 L 1243.808594 1135.28125 Z M 1043.65625 553.8125 " clip-rule="nonzero"/></clipPath><clipPath id="bdbfb72181"><path d="M 1065.640625 546.246094 L 1157.117188 514.757812 C 1169.257812 510.578125 1182.492188 517.03125 1186.667969 529.171875 L 1371.667969 1066.621094 C 1375.847656 1078.761719 1369.394531 1091.992188 1357.253906 1096.171875 L 1265.773438 1127.660156 C 1253.632812 1131.839844 1240.402344 1125.386719 1236.222656 1113.246094 L 1051.222656 575.796875 C 1047.042969 563.65625 1053.496094 550.425781 1065.640625 546.246094 Z M 1065.640625 546.246094 " clip-rule="nonzero"/></clipPath><clipPath id="802a0f4f40"><path d="M 0 0 L 324 0 L 324 616 L 0 616 Z M 0 0 " clip-rule="nonzero"/></clipPath><clipPath id="bbb233c3ec"><path d="M -5.34375 40.8125 L 130.101562 -5.8125 L 330.253906 575.660156 L 194.808594 622.28125 Z M -5.34375 40.8125 " clip-rule="nonzero"/></clipPath><clipPath id="c893c64f05"><path d="M 16.640625 33.246094 L 108.117188 1.757812 C 120.257812 -2.421875 133.492188 4.03125 137.667969 16.171875 L 322.667969 553.621094 C 326.847656 565.761719 320.394531 578.992188 308.253906 583.171875 L 216.773438 614.660156 C 204.632812 618.839844 191.402344 612.386719 187.222656 600.246094 L 2.222656 62.796875 C -1.957031 50.65625 4.496094 37.425781 16.640625 33.246094 Z M 16.640625 33.246094 " clip-rule="nonzero"/></clipPath><clipPath id="4adb712b8c"><rect x="0" width="324" y="0" height="616"/></clipPath><clipPath id="9a538ede7a"><path d="M 1049 513 L 1373 513 L 1373 1129 L 1049 1129 Z M 1049 513 " clip-rule="nonzero"/></clipPath><clipPath id="99e90853c5"><path d="M 1043.65625 553.8125 L 1179.105469 507.1875 L 1379.273438 1088.703125 L 1243.824219 1135.324219 Z M 1043.65625 553.8125 " clip-rule="nonzero"/></clipPath><clipPath id="7ae797ccd6"><path d="M 1043.660156 553.828125 L 1181.195312 506.484375 L 1382.402344 1091.011719 L 1244.863281 1138.355469 Z M 1043.660156 553.828125 " clip-rule="nonzero"/></clipPath><clipPath id="2a548b1b9f"><path d="M 1065.644531 546.261719 L 1157.117188 514.773438 C 1169.257812 510.59375 1182.488281 517.050781 1186.667969 529.191406 L 1371.65625 1066.605469 C 1375.835938 1078.75 1369.378906 1091.976562 1357.238281 1096.15625 L 1265.765625 1127.644531 C 1253.625 1131.824219 1240.394531 1125.367188 1236.214844 1113.226562 L 1051.226562 575.8125 C 1047.046875 563.671875 1053.503906 550.441406 1065.644531 546.261719 Z M 1065.644531 546.261719 " clip-rule="nonzero"/></clipPath><clipPath id="a6ba908ef4"><path d="M 396.578125 1005.625 L 881.90625 1005.625 L 881.90625 1097.113281 L 396.578125 1097.113281 Z M 396.578125 1005.625 " clip-rule="nonzero"/></clipPath><clipPath id="7590c98431"><path d="M 396.578125 1073.863281 L 396.578125 1028.875 C 396.578125 1016.03125 406.984375 1005.625 419.828125 1005.625 L 858.417969 1005.625 C 871.257812 1005.625 881.667969 1016.03125 881.667969 1028.875 L 881.667969 1073.863281 C 881.667969 1086.703125 871.257812 1097.113281 858.417969 1097.113281 L 419.828125 1097.113281 C 406.984375 1097.113281 396.578125 1086.703125 396.578125 1073.863281 Z M 396.578125 1073.863281 " clip-rule="nonzero"/></clipPath><clipPath id="fde4195790"><path d="M 0.578125 0.625 L 485.761719 0.625 L 485.761719 92.113281 L 0.578125 92.113281 Z M 0.578125 0.625 " clip-rule="nonzero"/></clipPath><clipPath id="8b6271276f"><path d="M 0.578125 68.863281 L 0.578125 23.875 C 0.578125 11.03125 10.984375 0.625 23.828125 0.625 L 462.417969 0.625 C 475.257812 0.625 485.667969 11.03125 485.667969 23.875 L 485.667969 68.863281 C 485.667969 81.703125 475.257812 92.113281 462.417969 92.113281 L 23.828125 92.113281 C 10.984375 92.113281 0.578125 81.703125 0.578125 68.863281 Z M 0.578125 68.863281 " clip-rule="nonzero"/></clipPath><clipPath id="b5eaad3f23"><rect x="0" width="486" y="0" height="93"/></clipPath><clipPath id="fec4ecfe38"><path d="M 396.582031 1005.613281 L 881.828125 1005.613281 L 881.828125 1097.113281 L 396.582031 1097.113281 Z M 396.582031 1005.613281 " clip-rule="nonzero"/></clipPath><clipPath id="fed404a325"><path d="M 396.582031 1073.863281 L 396.582031 1028.875 C 396.582031 1016.035156 406.988281 1005.625 419.828125 1005.625 L 858.410156 1005.625 C 871.25 1005.625 881.660156 1016.035156 881.660156 1028.875 L 881.660156 1073.863281 C 881.660156 1086.703125 871.25 1097.113281 858.410156 1097.113281 L 419.828125 1097.113281 C 406.988281 1097.113281 396.582031 1086.703125 396.582031 1073.863281 Z M 396.582031 1073.863281 " clip-rule="nonzero"/></clipPath><clipPath id="f8c00549fa"><path d="M 892.269531 1005.625 L 983.761719 1005.625 L 983.761719 1097.117188 L 892.269531 1097.117188 Z M 892.269531 1005.625 " clip-rule="nonzero"/></clipPath><clipPath id="d66ac3819a"><path d="M 892.269531 1051.371094 C 892.269531 1076.632812 912.75 1097.117188 938.015625 1097.117188 C 963.28125 1097.117188 983.761719 1076.632812 983.761719 1051.371094 C 983.761719 1026.105469 963.28125 1005.625 938.015625 1005.625 C 912.75 1005.625 892.269531 1026.105469 892.269531 1051.371094 Z M 892.269531 1051.371094 " clip-rule="nonzero"/></clipPath><clipPath id="6c7bebfc49"><path d="M 0.269531 0.625 L 91.761719 0.625 L 91.761719 92.117188 L 0.269531 92.117188 Z M 0.269531 0.625 " clip-rule="nonzero"/></clipPath><clipPath id="32f62e594f"><path d="M 0.269531 46.371094 C 0.269531 71.632812 20.75 92.117188 46.015625 92.117188 C 71.28125 92.117188 91.761719 71.632812 91.761719 46.371094 C 91.761719 21.105469 71.28125 0.625 46.015625 0.625 C 20.75 0.625 0.269531 21.105469 0.269531 46.371094 Z M 0.269531 46.371094 " clip-rule="nonzero"/></clipPath><clipPath id="ca21a42d46"><rect x="0" width="92" y="0" height="93"/></clipPath><clipPath id="70b88150c6"><path d="M 892.269531 1005.628906 L 983.757812 1005.628906 L 983.757812 1097.117188 L 892.269531 1097.117188 Z M 892.269531 1005.628906 " clip-rule="nonzero"/></clipPath><clipPath id="6624d1372e"><path d="M 892.269531 1051.371094 C 892.269531 1076.636719 912.75 1097.117188 938.015625 1097.117188 C 963.277344 1097.117188 983.757812 1076.636719 983.757812 1051.371094 C 983.757812 1026.109375 963.277344 1005.628906 938.015625 1005.628906 C 912.75 1005.628906 892.269531 1026.109375 892.269531 1051.371094 Z M 892.269531 1051.371094 " clip-rule="nonzero"/></clipPath><clipPath id="dc54ac3ede"><path d="M 193.800781 850.863281 L 753.949219 850.863281 L 753.949219 958.519531 L 193.800781 958.519531 Z M 193.800781 850.863281 " clip-rule="nonzero"/></clipPath><clipPath id="07e5504a24"><path d="M 193.800781 935.269531 L 193.800781 874.113281 C 193.800781 861.273438 204.207031 850.863281 217.050781 850.863281 L 730.386719 850.863281 C 743.226562 850.863281 753.636719 861.273438 753.636719 874.113281 L 753.636719 935.269531 C 753.636719 948.109375 743.226562 958.519531 730.386719 958.519531 L 217.050781 958.519531 C 204.207031 958.519531 193.800781 948.109375 193.800781 935.269531 Z M 193.800781 935.269531 " clip-rule="nonzero"/></clipPath><clipPath id="f80e619fe6"><path d="M 0.800781 0.863281 L 560.839844 0.863281 L 560.839844 108.519531 L 0.800781 108.519531 Z M 0.800781 0.863281 " clip-rule="nonzero"/></clipPath><clipPath id="d22f6515d7"><path d="M 0.800781 85.269531 L 0.800781 24.113281 C 0.800781 11.273438 11.207031 0.863281 24.050781 0.863281 L 537.386719 0.863281 C 550.226562 0.863281 560.636719 11.273438 560.636719 24.113281 L 560.636719 85.269531 C 560.636719 98.109375 550.226562 108.519531 537.386719 108.519531 L 24.050781 108.519531 C 11.207031 108.519531 0.800781 98.109375 0.800781 85.269531 Z M 0.800781 85.269531 " clip-rule="nonzero"/></clipPath><clipPath id="61271d1b3c"><rect x="0" width="561" y="0" height="109"/></clipPath><clipPath id="6bca45828f"><path d="M 193.816406 850.519531 L 753.300781 850.519531 L 753.300781 958.519531 L 193.816406 958.519531 Z M 193.816406 850.519531 " clip-rule="nonzero"/></clipPath><clipPath id="94743ba51a"><path d="M 193.816406 935.269531 L 193.816406 874.117188 C 193.816406 861.28125 204.226562 850.871094 217.0625 850.871094 L 730.363281 850.871094 C 743.203125 850.871094 753.609375 861.28125 753.609375 874.117188 L 753.609375 935.269531 C 753.609375 948.109375 743.203125 958.519531 730.363281 958.519531 L 217.0625 958.519531 C 204.226562 958.519531 193.816406 948.109375 193.816406 935.269531 Z M 193.816406 935.269531 " clip-rule="nonzero"/></clipPath><clipPath id="83fd136448"><path d="M 765.921875 852.515625 L 871.925781 852.515625 L 871.925781 958.519531 L 765.921875 958.519531 Z M 765.921875 852.515625 " clip-rule="nonzero"/></clipPath><clipPath id="d8f52a5e2d"><path d="M 765.921875 905.519531 C 765.921875 934.792969 789.652344 958.519531 818.925781 958.519531 C 848.195312 958.519531 871.925781 934.792969 871.925781 905.519531 C 871.925781 876.246094 848.195312 852.515625 818.925781 852.515625 C 789.652344 852.515625 765.921875 876.246094 765.921875 905.519531 Z M 765.921875 905.519531 " clip-rule="nonzero"/></clipPath><clipPath id="8d916ef675"><path d="M 0.921875 0.515625 L 106.925781 0.515625 L 106.925781 106.519531 L 0.921875 106.519531 Z M 0.921875 0.515625 " clip-rule="nonzero"/></clipPath><clipPath id="56c261269a"><path d="M 0.921875 53.519531 C 0.921875 82.792969 24.652344 106.519531 53.925781 106.519531 C 83.195312 106.519531 106.925781 82.792969 106.925781 53.519531 C 106.925781 24.246094 83.195312 0.515625 53.925781 0.515625 C 24.652344 0.515625 0.921875 24.246094 0.921875 53.519531 Z M 0.921875 53.519531 " clip-rule="nonzero"/></clipPath><clipPath id="e1169f8250"><rect x="0" width="107" y="0" height="107"/></clipPath><clipPath id="f7f3678b87"><path d="M 765.921875 852.769531 L 871.671875 852.769531 L 871.671875 958.519531 L 765.921875 958.519531 Z M 765.921875 852.769531 " clip-rule="nonzero"/></clipPath><clipPath id="12463096c9"><path d="M 765.921875 905.523438 C 765.921875 934.792969 789.648438 958.519531 818.921875 958.519531 C 848.191406 958.519531 871.917969 934.792969 871.917969 905.523438 C 871.917969 876.253906 848.191406 852.523438 818.921875 852.523438 C 789.648438 852.523438 765.921875 876.253906 765.921875 905.523438 Z M 765.921875 905.523438 " clip-rule="nonzero"/></clipPath><clipPath id="5aa134d574"><path d="M 112.246094 701.953125 L 642.859375 701.953125 L 642.859375 805.722656 L 112.246094 805.722656 Z M 112.246094 701.953125 " clip-rule="nonzero"/></clipPath><clipPath id="051cd12e22"><path d="M 112.246094 782.472656 L 112.246094 725.203125 C 112.246094 712.363281 122.65625 701.953125 135.496094 701.953125 L 619.523438 701.953125 C 632.363281 701.953125 642.773438 712.363281 642.773438 725.203125 L 642.773438 782.472656 C 642.773438 795.3125 632.363281 805.722656 619.523438 805.722656 L 135.496094 805.722656 C 122.65625 805.722656 112.246094 795.3125 112.246094 782.472656 Z M 112.246094 782.472656 " clip-rule="nonzero"/></clipPath><clipPath id="f1bb0c889d"><path d="M 0.246094 0.953125 L 530.859375 0.953125 L 530.859375 104.722656 L 0.246094 104.722656 Z M 0.246094 0.953125 " clip-rule="nonzero"/></clipPath><clipPath id="b6f9ac4ec0"><path d="M 0.246094 81.472656 L 0.246094 24.203125 C 0.246094 11.363281 10.65625 0.953125 23.496094 0.953125 L 507.523438 0.953125 C 520.363281 0.953125 530.773438 11.363281 530.773438 24.203125 L 530.773438 81.472656 C 530.773438 94.3125 520.363281 104.722656 507.523438 104.722656 L 23.496094 104.722656 C 10.65625 104.722656 0.246094 94.3125 0.246094 81.472656 Z M 0.246094 81.472656 " clip-rule="nonzero"/></clipPath><clipPath id="e07ee67c7a"><rect x="0" width="531" y="0" height="105"/></clipPath><clipPath id="2a8e6f5824"><path d="M 112.25 702.222656 L 642.496094 702.222656 L 642.496094 805.722656 L 112.25 805.722656 Z M 112.25 702.222656 " clip-rule="nonzero"/></clipPath><clipPath id="422a1cb905"><path d="M 112.25 782.472656 L 112.25 725.203125 C 112.25 712.363281 122.65625 701.953125 135.496094 701.953125 L 619.515625 701.953125 C 632.355469 701.953125 642.765625 712.363281 642.765625 725.203125 L 642.765625 782.472656 C 642.765625 795.316406 632.355469 805.722656 619.515625 805.722656 L 135.496094 805.722656 C 122.65625 805.722656 112.25 795.316406 112.25 782.472656 Z M 112.25 782.472656 " clip-rule="nonzero"/></clipPath><clipPath id="47fa1da44f"><path d="M 654.390625 701.957031 L 754.644531 701.957031 L 754.644531 802.210938 L 654.390625 802.210938 Z M 654.390625 701.957031 " clip-rule="nonzero"/></clipPath><clipPath id="1fa618d50b"><path d="M 654.390625 752.082031 C 654.390625 779.765625 676.832031 802.210938 704.515625 802.210938 C 732.203125 802.210938 754.644531 779.765625 754.644531 752.082031 C 754.644531 724.398438 732.203125 701.957031 704.515625 701.957031 C 676.832031 701.957031 654.390625 724.398438 654.390625 752.082031 Z M 654.390625 752.082031 " clip-rule="nonzero"/></clipPath><clipPath id="de89619e2e"><path d="M 0.390625 0.957031 L 100.644531 0.957031 L 100.644531 101.210938 L 0.390625 101.210938 Z M 0.390625 0.957031 " clip-rule="nonzero"/></clipPath><clipPath id="977fb14d83"><path d="M 0.390625 51.082031 C 0.390625 78.765625 22.832031 101.210938 50.515625 101.210938 C 78.203125 101.210938 100.644531 78.765625 100.644531 51.082031 C 100.644531 23.398438 78.203125 0.957031 50.515625 0.957031 C 22.832031 0.957031 0.390625 23.398438 0.390625 51.082031 Z M 0.390625 51.082031 " clip-rule="nonzero"/></clipPath><clipPath id="29039d6e93"><rect x="0" width="101" y="0" height="102"/></clipPath><clipPath id="bfb997ed9f"><path d="M 654.390625 701.957031 L 754.644531 701.957031 L 754.644531 802.210938 L 654.390625 802.210938 Z M 654.390625 701.957031 " clip-rule="nonzero"/></clipPath><clipPath id="d17879dce8"><path d="M 654.390625 752.082031 C 654.390625 779.769531 676.832031 802.210938 704.515625 802.210938 C 732.199219 802.210938 754.644531 779.769531 754.644531 752.082031 C 754.644531 724.398438 732.199219 701.957031 704.515625 701.957031 C 676.832031 701.957031 654.390625 724.398438 654.390625 752.082031 Z M 654.390625 752.082031 " clip-rule="nonzero"/></clipPath><clipPath id="82234a61cf"><path d="M 215.84375 558.453125 L 723.40625 558.453125 L 723.40625 657.035156 L 215.84375 657.035156 Z M 215.84375 558.453125 " clip-rule="nonzero"/></clipPath><clipPath id="2f0f3a4cae"><path d="M 215.84375 633.785156 L 215.84375 581.703125 C 215.84375 568.859375 226.253906 558.453125 239.09375 558.453125 L 699.835938 558.453125 C 712.679688 558.453125 723.085938 568.859375 723.085938 581.703125 L 723.085938 633.785156 C 723.085938 646.628906 712.679688 657.035156 699.835938 657.035156 L 239.09375 657.035156 C 226.253906 657.035156 215.84375 646.628906 215.84375 633.785156 Z M 215.84375 633.785156 " clip-rule="nonzero"/></clipPath><clipPath id="25f64b3552"><path d="M 0.84375 0.453125 L 508.121094 0.453125 L 508.121094 99.035156 L 0.84375 99.035156 Z M 0.84375 0.453125 " clip-rule="nonzero"/></clipPath><clipPath id="ae4c2e86e5"><path d="M 0.84375 75.785156 L 0.84375 23.703125 C 0.84375 10.859375 11.253906 0.453125 24.09375 0.453125 L 484.835938 0.453125 C 497.679688 0.453125 508.085938 10.859375 508.085938 23.703125 L 508.085938 75.785156 C 508.085938 88.628906 497.679688 99.035156 484.835938 99.035156 L 24.09375 99.035156 C 11.253906 99.035156 0.84375 88.628906 0.84375 75.785156 Z M 0.84375 75.785156 " clip-rule="nonzero"/></clipPath><clipPath id="4baa020426"><rect x="0" width="509" y="0" height="100"/></clipPath><clipPath id="5958a8e3c9"><path d="M 215.859375 558.785156 L 722.84375 558.785156 L 722.84375 657.035156 L 215.859375 657.035156 Z M 215.859375 558.785156 " clip-rule="nonzero"/></clipPath><clipPath id="b367a9e870"><path d="M 215.859375 633.789062 L 215.859375 581.707031 C 215.859375 568.867188 226.265625 558.457031 239.105469 558.457031 L 699.816406 558.457031 C 712.65625 558.457031 723.0625 568.867188 723.0625 581.707031 L 723.0625 633.789062 C 723.0625 646.628906 712.65625 657.035156 699.816406 657.035156 L 239.105469 657.035156 C 226.265625 657.035156 215.859375 646.628906 215.859375 633.789062 Z M 215.859375 633.789062 " clip-rule="nonzero"/></clipPath><clipPath id="47a3f13384"><path d="M 734.113281 558.457031 L 829.234375 558.457031 L 829.234375 653.582031 L 734.113281 653.582031 Z M 734.113281 558.457031 " clip-rule="nonzero"/></clipPath><clipPath id="9da467975b"><path d="M 734.113281 606.019531 C 734.113281 632.285156 755.40625 653.582031 781.671875 653.582031 C 807.941406 653.582031 829.234375 632.285156 829.234375 606.019531 C 829.234375 579.75 807.941406 558.457031 781.671875 558.457031 C 755.40625 558.457031 734.113281 579.75 734.113281 606.019531 Z M 734.113281 606.019531 " clip-rule="nonzero"/></clipPath><clipPath id="dee375e396"><path d="M 0.113281 0.457031 L 95.234375 0.457031 L 95.234375 95.582031 L 0.113281 95.582031 Z M 0.113281 0.457031 " clip-rule="nonzero"/></clipPath><clipPath id="54b62573df"><path d="M 0.113281 48.019531 C 0.113281 74.285156 21.40625 95.582031 47.671875 95.582031 C 73.941406 95.582031 95.234375 74.285156 95.234375 48.019531 C 95.234375 21.75 73.941406 0.457031 47.671875 0.457031 C 21.40625 0.457031 0.113281 21.75 0.113281 48.019531 Z M 0.113281 48.019531 " clip-rule="nonzero"/></clipPath><clipPath id="a6f3883626"><rect x="0" width="96" y="0" height="96"/></clipPath><clipPath id="29f90be418"><path d="M 734.113281 558.460938 L 829.234375 558.460938 L 829.234375 653.582031 L 734.113281 653.582031 Z M 734.113281 558.460938 " clip-rule="nonzero"/></clipPath><clipPath id="22b20de742"><path d="M 734.113281 606.019531 C 734.113281 632.289062 755.40625 653.582031 781.671875 653.582031 C 807.9375 653.582031 829.234375 632.289062 829.234375 606.019531 C 829.234375 579.753906 807.9375 558.460938 781.671875 558.460938 C 755.40625 558.460938 734.113281 579.753906 734.113281 606.019531 Z M 734.113281 606.019531 " clip-rule="nonzero"/></clipPath><clipPath id="14a6af891d"><path d="M 799 252 L 1142 252 L 1142 939 L 799 939 Z M 799 252 " clip-rule="nonzero"/></clipPath><clipPath id="8652f4a1ec"><path d="M 793.378906 290.121094 L 922.910156 245.734375 L 1147.445312 900.976562 L 1017.914062 945.363281 Z M 793.378906 290.121094 " clip-rule="nonzero"/></clipPath><clipPath id="e5c97b549b"><path d="M 815.375 282.585938 L 900.917969 253.273438 C 906.75 251.273438 913.140625 251.671875 918.675781 254.382812 C 924.214844 257.097656 928.449219 261.894531 930.449219 267.730469 L 1139.871094 878.875 C 1141.867188 884.707031 1141.46875 891.097656 1138.757812 896.636719 C 1136.046875 902.171875 1131.246094 906.40625 1125.414062 908.40625 L 1039.871094 937.71875 C 1034.039062 939.71875 1027.648438 939.316406 1022.109375 936.605469 C 1016.574219 933.894531 1012.339844 929.09375 1010.339844 923.261719 L 800.917969 312.117188 C 798.917969 306.28125 799.320312 299.894531 802.03125 294.355469 C 804.742188 288.816406 809.542969 284.582031 815.375 282.585938 Z M 815.375 282.585938 " clip-rule="nonzero"/></clipPath><clipPath id="e61c41890f"><path d="M 0 0 L 342.921875 0 L 342.921875 687 L 0 687 Z M 0 0 " clip-rule="nonzero"/></clipPath><clipPath id="c6135ea150"><path d="M -5.621094 38.121094 L 123.910156 -6.265625 L 348.445312 648.976562 L 218.914062 693.363281 Z M -5.621094 38.121094 " clip-rule="nonzero"/></clipPath><clipPath id="46830def69"><path d="M 16.375 30.585938 L 101.917969 1.273438 C 107.75 -0.726562 114.140625 -0.328125 119.675781 2.382812 C 125.214844 5.097656 129.449219 9.894531 131.449219 15.730469 L 340.871094 626.875 C 342.867188 632.707031 342.46875 639.097656 339.757812 644.636719 C 337.046875 650.171875 332.246094 654.40625 326.414062 656.40625 L 240.871094 685.71875 C 235.039062 687.71875 228.648438 687.316406 223.109375 684.605469 C 217.574219 681.894531 213.339844 677.09375 211.339844 671.261719 L 1.917969 60.117188 C -0.0820312 54.28125 0.320312 47.894531 3.03125 42.355469 C 5.742188 36.816406 10.542969 32.582031 16.375 30.585938 Z M 16.375 30.585938 " clip-rule="nonzero"/></clipPath><clipPath id="660cfffe7c"><rect x="0" width="343" y="0" height="687"/></clipPath><clipPath id="3829453f74"><path d="M 799 252 L 1142 252 L 1142 939 L 799 939 Z M 799 252 " clip-rule="nonzero"/></clipPath><clipPath id="c55ac2fe65"><path d="M 793.378906 290.121094 L 923.21875 245.628906 L 1147.625 900.5 L 1017.785156 944.988281 Z M 793.378906 290.121094 " clip-rule="nonzero"/></clipPath><clipPath id="f6f8ba9e38"><path d="M 793.382812 290.128906 L 925.171875 244.96875 L 1150.96875 903.902344 L 1019.179688 949.0625 Z M 793.382812 290.128906 " clip-rule="nonzero"/></clipPath><clipPath id="b5b1c8ae27"><path d="M 815.378906 282.589844 L 900.917969 253.277344 C 906.75 251.28125 913.136719 251.679688 918.675781 254.390625 C 924.214844 257.101562 928.449219 261.902344 930.449219 267.738281 L 1139.863281 878.871094 C 1141.863281 884.703125 1141.464844 891.089844 1138.753906 896.628906 C 1136.042969 902.167969 1131.242188 906.402344 1125.40625 908.402344 L 1039.867188 937.710938 C 1034.035156 939.710938 1027.644531 939.3125 1022.109375 936.601562 C 1016.570312 933.890625 1012.335938 929.089844 1010.335938 923.253906 L 800.917969 312.121094 C 798.921875 306.289062 799.320312 299.898438 802.03125 294.363281 C 804.742188 288.824219 809.542969 284.589844 815.378906 282.589844 Z M 815.378906 282.589844 " clip-rule="nonzero"/></clipPath><clipPath id="10f01c6b07"><path d="M 1047 934 L 1170 934 L 1170 1063 L 1047 1063 Z M 1047 934 " clip-rule="nonzero"/></clipPath><clipPath id="5f3b2e19ea"><path d="M 1030.035156 956.871094 L 1144.929688 917.5 L 1186.761719 1039.574219 L 1071.867188 1078.945312 Z M 1030.035156 956.871094 " clip-rule="nonzero"/></clipPath><clipPath id="418414aea4"><path d="M 1087.480469 937.1875 C 1055.753906 948.058594 1039.382812 984.152344 1050.914062 1017.808594 C 1062.449219 1051.460938 1097.515625 1069.929688 1129.242188 1059.054688 C 1160.96875 1048.183594 1177.339844 1012.089844 1165.808594 978.4375 C 1154.277344 944.78125 1119.207031 926.316406 1087.480469 937.1875 Z M 1087.480469 937.1875 " clip-rule="nonzero"/></clipPath><clipPath id="e1d79a24bc"><path d="M 0 0 L 123 0 L 123 129 L 0 129 Z M 0 0 " clip-rule="nonzero"/></clipPath><clipPath id="86c8fd0579"><path d="M -16.964844 22.871094 L 97.929688 -16.5 L 139.761719 105.574219 L 24.867188 144.945312 Z M -16.964844 22.871094 " clip-rule="nonzero"/></clipPath><clipPath id="3dd01b1f12"><path d="M 40.480469 3.1875 C 8.753906 14.058594 -7.617188 50.152344 3.914062 83.808594 C 15.449219 117.460938 50.515625 135.929688 82.242188 125.054688 C 113.96875 114.183594 130.339844 78.089844 118.808594 44.4375 C 107.277344 10.78125 72.207031 -7.683594 40.480469 3.1875 Z M 40.480469 3.1875 " clip-rule="nonzero"/></clipPath><clipPath id="d9ab39b6b3"><rect x="0" width="123" y="0" height="129"/></clipPath><clipPath id="0fbd57d6a3"><path d="M 1047 934 L 1170 934 L 1170 1063 L 1047 1063 Z M 1047 934 " clip-rule="nonzero"/></clipPath><clipPath id="f388157976"><path d="M 1030.035156 956.871094 L 1144.972656 917.484375 L 1186.792969 1039.519531 L 1071.851562 1078.90625 Z M 1030.035156 956.871094 " clip-rule="nonzero"/></clipPath><clipPath id="a0352e5819"><path d="M 1030.035156 956.875 L 1146.183594 917.074219 L 1187.941406 1038.933594 L 1071.792969 1078.734375 Z M 1030.035156 956.875 " clip-rule="nonzero"/></clipPath><clipPath id="861dd8675a"><path d="M 1087.476562 937.191406 C 1055.753906 948.0625 1039.382812 984.15625 1050.914062 1017.804688 C 1062.445312 1051.457031 1097.511719 1069.921875 1129.234375 1059.050781 C 1160.960938 1048.179688 1177.328125 1012.089844 1165.796875 978.4375 C 1154.265625 944.789062 1119.203125 926.320312 1087.476562 937.191406 Z M 1087.476562 937.191406 " clip-rule="nonzero"/></clipPath><clipPath id="7b791c0875"><path d="M 1084 545 L 1307 545 L 1307 1000 L 1084 1000 Z M 1084 545 " clip-rule="nonzero"/></clipPath><clipPath id="6a7bb94065"><path d="M 1078.691406 568.082031 L 1161.71875 539.503906 L 1312.425781 977.332031 L 1229.402344 1005.910156 Z M 1078.691406 568.082031 " clip-rule="nonzero"/></clipPath><clipPath id="98d6838ef8"><path d="M 1100.675781 560.515625 L 1139.734375 547.070312 C 1151.875 542.890625 1165.105469 549.347656 1169.285156 561.488281 L 1304.761719 955.0625 C 1308.941406 967.203125 1302.484375 980.433594 1290.34375 984.613281 L 1251.289062 998.058594 C 1239.144531 1002.238281 1225.914062 995.78125 1221.734375 983.640625 L 1086.261719 590.066406 C 1082.082031 577.925781 1088.535156 564.695312 1100.675781 560.515625 Z M 1100.675781 560.515625 " clip-rule="nonzero"/></clipPath><clipPath id="9fdc6cb220"><path d="M 0 0 L 223 0 L 223 455 L 0 455 Z M 0 0 " clip-rule="nonzero"/></clipPath><clipPath id="fd8607d5b3"><path d="M -5.308594 23.082031 L 77.71875 -5.496094 L 228.425781 432.332031 L 145.402344 460.910156 Z M -5.308594 23.082031 " clip-rule="nonzero"/></clipPath><clipPath id="7fcc9aa8c8"><path d="M 16.675781 15.515625 L 55.734375 2.070312 C 67.875 -2.109375 81.105469 4.347656 85.285156 16.488281 L 220.761719 410.0625 C 224.941406 422.203125 218.484375 435.433594 206.34375 439.613281 L 167.289062 453.058594 C 155.144531 457.238281 141.914062 450.78125 137.734375 438.640625 L 2.261719 45.066406 C -1.917969 32.925781 4.535156 19.695312 16.675781 15.515625 Z M 16.675781 15.515625 " clip-rule="nonzero"/></clipPath><clipPath id="9a755fe1d0"><rect x="0" width="223" y="0" height="455"/></clipPath><clipPath id="05f769c9f7"><path d="M 1084 545 L 1307 545 L 1307 1000 L 1084 1000 Z M 1084 545 " clip-rule="nonzero"/></clipPath><clipPath id="f1772b8a0c"><path d="M 1078.691406 568.082031 L 1161.664062 539.523438 L 1312.277344 977.074219 L 1229.308594 1005.636719 Z M 1078.691406 568.082031 " clip-rule="nonzero"/></clipPath><clipPath id="d083fead8f"><path d="M 1078.699219 568.105469 L 1162.199219 539.363281 L 1314.363281 981.421875 L 1230.867188 1010.164062 Z M 1078.699219 568.105469 " clip-rule="nonzero"/></clipPath><clipPath id="eee83e1964"><path d="M 1100.683594 560.539062 L 1139.734375 547.09375 C 1151.875 542.917969 1165.105469 549.371094 1169.285156 561.511719 L 1304.746094 955.046875 C 1308.925781 967.183594 1302.46875 980.414062 1290.328125 984.59375 L 1251.277344 998.035156 C 1239.136719 1002.214844 1225.90625 995.761719 1221.730469 983.621094 L 1086.265625 590.085938 C 1082.089844 577.945312 1088.542969 564.714844 1100.683594 560.539062 Z M 1100.683594 560.539062 " clip-rule="nonzero"/></clipPath><clipPath id="ba4e36ba2d"><path d="M 1244 998 L 1331 998 L 1331 1086 L 1244 1086 Z M 1244 998 " clip-rule="nonzero"/></clipPath><clipPath id="ad6c7472ef"><path d="M 1232.472656 1015.136719 L 1314.238281 986.992188 L 1342.382812 1068.753906 L 1260.617188 1096.902344 Z M 1232.472656 1015.136719 " clip-rule="nonzero"/></clipPath><clipPath id="17c2d74f9b"><path d="M 1273.355469 1001.0625 C 1250.777344 1008.835938 1238.773438 1033.4375 1246.542969 1056.019531 C 1254.316406 1078.597656 1278.921875 1090.601562 1301.5 1082.828125 C 1324.078125 1075.054688 1336.082031 1050.453125 1328.308594 1027.875 C 1320.539062 1005.292969 1295.933594 993.289062 1273.355469 1001.0625 Z M 1273.355469 1001.0625 " clip-rule="nonzero"/></clipPath><clipPath id="29c0b71c28"><path d="M 0 0 L 87 0 L 87 88 L 0 88 Z M 0 0 " clip-rule="nonzero"/></clipPath><clipPath id="d69a991054"><path d="M -11.527344 17.136719 L 70.238281 -11.007812 L 98.382812 70.753906 L 16.617188 98.902344 Z M -11.527344 17.136719 " clip-rule="nonzero"/></clipPath><clipPath id="b3e7653ba3"><path d="M 29.355469 3.0625 C 6.777344 10.835938 -5.226562 35.4375 2.542969 58.019531 C 10.316406 80.597656 34.921875 92.601562 57.5 84.828125 C 80.078125 77.054688 92.082031 52.453125 84.308594 29.875 C 76.539062 7.292969 51.933594 -4.710938 29.355469 3.0625 Z M 29.355469 3.0625 " clip-rule="nonzero"/></clipPath><clipPath id="dd155d588f"><rect x="0" width="87" y="0" height="88"/></clipPath><clipPath id="9ca73920ce"><path d="M 1244 998 L 1331 998 L 1331 1086 L 1244 1086 Z M 1244 998 " clip-rule="nonzero"/></clipPath><clipPath id="9b378a836f"><path d="M 1232.472656 1015.136719 L 1314.023438 987.0625 L 1342.097656 1068.617188 L 1260.542969 1096.6875 Z M 1232.472656 1015.136719 " clip-rule="nonzero"/></clipPath><clipPath id="c825c28d3f"><path d="M 1232.472656 1015.136719 L 1314.234375 986.992188 L 1342.378906 1068.753906 L 1260.617188 1096.898438 Z M 1232.472656 1015.136719 " clip-rule="nonzero"/></clipPath><clipPath id="1bebd5cfa7"><path d="M 1273.355469 1001.0625 C 1250.773438 1008.835938 1238.773438 1033.4375 1246.542969 1056.019531 C 1254.316406 1078.597656 1278.921875 1090.597656 1301.5 1082.828125 C 1324.078125 1075.054688 1336.082031 1050.453125 1328.308594 1027.871094 C 1320.535156 1005.292969 1295.933594 993.292969 1273.355469 1001.0625 Z M 1273.355469 1001.0625 " clip-rule="nonzero"/></clipPath></defs><g mask="url(#085fafd97b)"><g transform="matrix(1, 0, 0, 1, 172, 1104)"><g clip-path="url(#67a444bf2a)"><g clip-path="url(#bf9aef735a)"><g clip-path="url(#f51f1be6eb)"><g><g clip-path="url(#462f55e34a)"><g clip-path="url(#8c4e9116ec)"><g clip-path="url(#9fc2a095bc)"><path fill="#000000" d="M 0.535156 0.261719 L 1207.210938 0.261719 L 1207.210938 31.015625 L 0.535156 31.015625 Z M 0.535156 0.261719 " fill-opacity="1" fill-rule="nonzero"/></g></g></g></g></g></g></g></g></g><g clip-path="url(#d743ccafa0)"><g clip-path="url(#a8e9e14564)"><g transform="matrix(1, 0, 0, 1, 365, 975)"><g clip-path="url(#ee18665d1f)"><g clip-path="url(#ee3f90510c)"><g clip-path="url(#0763811e0a)"><path fill="#8b66f0" d="M 0.738281 152.144531 L 0.738281 0.585938 L 651.367188 0.585938 L 651.367188 152.144531 Z M 0.738281 152.144531 " fill-opacity="1" fill-rule="nonzero"/></g></g></g></g></g></g><g clip-path="url(#d5fa8419eb)"><g clip-path="url(#d87b526d31)"><path stroke-linecap="butt" transform="matrix(0, -0.75, 0.75, 0, 365.737473, 1127.144067)" fill="none" stroke-linejoin="miter" d="M 30.999386 0.0271193 L 171.067115 0.0271193 C 188.181701 0.0271193 202.061911 13.902121 202.061911 31.021916 L 202.061911 836.397037 C 202.061911 853.516831 188.181701 867.397041 171.067115 867.397041 L 30.999386 867.397041 C 13.879591 867.397041 -0.000619113 853.516831 -0.000619113 836.397037 L -0.000619113 31.021916 C -0.000619113 13.902121 13.879591 0.0271193 30.999386 0.0271193 Z M 30.999386 0.0271193 " stroke="#000000" stroke-width="48" stroke-opacity="1" stroke-miterlimit="4"/></g></g><g clip-path="url(#eec6d50992)"><g clip-path="url(#fa47a73d6f)"><g transform="matrix(1, 0, 0, 1, 155, 817)"><g clip-path="url(#98b14a6719)"><g clip-path="url(#1b8de11ad3)"><g clip-path="url(#da60440af1)"><path fill="#8b66f0" d="M 0.871094 176.320312 L 0.871094 0.722656 L 754.707031 0.722656 L 754.707031 176.320312 Z M 0.871094 176.320312 " fill-opacity="1" fill-rule="nonzero"/></g></g></g></g></g></g><g clip-path="url(#e1adb08bf9)"><g clip-path="url(#38c6a9a21f)"><path stroke-linecap="butt" transform="matrix(0, -0.75, 0.75, 0, 155.871759, 993.320174)" fill="none" stroke-linejoin="miter" d="M 30.999819 0.0095295 L 203.124833 0.0095295 C 220.244627 0.0095295 234.124836 13.884531 234.124836 31.009532 L 234.124836 974.009613 C 234.124836 991.129407 220.244627 1005.009616 203.124833 1005.009616 L 30.999819 1005.009616 C 13.880025 1005.009616 -0.000184077 991.129407 -0.000184077 974.009613 L -0.000184077 31.009532 C -0.000184077 13.884531 13.880025 0.0095295 30.999819 0.0095295 Z M 30.999819 0.0095295 " stroke="#000000" stroke-width="48" stroke-opacity="1" stroke-miterlimit="4"/></g></g><g clip-path="url(#75fd9d82c6)"><g clip-path="url(#2a7148d238)"><g transform="matrix(1, 0, 0, 1, 77, 669)"><g clip-path="url(#9e69825f16)"><g clip-path="url(#2f1a5f46b5)"><g clip-path="url(#db1b26cb9a)"><path fill="#8b66f0" d="M 0.417969 166.113281 L 0.417969 0.0390625 L 713.375 0.0390625 L 713.375 166.113281 Z M 0.417969 166.113281 " fill-opacity="1" fill-rule="nonzero"/></g></g></g></g></g></g><g clip-path="url(#4d1e6285fe)"><g clip-path="url(#0f79b8f108)"><path stroke-linecap="butt" transform="matrix(0, -0.75, 0.75, 0, 77.418461, 835.114012)" fill="none" stroke-linejoin="miter" d="M 30.995771 0.0201769 L 190.422878 0.0201769 C 207.542672 0.0201769 221.422883 13.900387 221.422883 31.020182 L 221.422883 919.494273 C 221.422883 936.614068 207.542672 950.494278 190.422878 950.494278 L 30.995771 950.494278 C 13.875977 950.494278 0.000974425 936.614068 0.000974425 919.494273 L 0.000974425 31.020182 C 0.000974425 13.900387 13.875977 0.0201769 30.995771 0.0201769 Z M 30.995771 0.0201769 " stroke="#000000" stroke-width="48" stroke-opacity="1" stroke-miterlimit="4"/></g></g><g clip-path="url(#db3ac8f383)"><g clip-path="url(#6cc103fd03)"><g transform="matrix(1, 0, 0, 1, 186, 527)"><g clip-path="url(#4c260406f8)"><g clip-path="url(#a6339ebd9c)"><g clip-path="url(#6869821492)"><path fill="#8b66f0" d="M 0.667969 157.804688 L 0.667969 0.230469 L 677.136719 0.230469 L 677.136719 157.804688 Z M 0.667969 157.804688 " fill-opacity="1" fill-rule="nonzero"/></g></g></g></g></g></g><g clip-path="url(#b01d37e6fc)"><g clip-path="url(#1f77726d13)"><path stroke-linecap="butt" transform="matrix(0, -0.75, 0.75, 0, 186.667899, 684.806225)" fill="none" stroke-linejoin="miter" d="M 30.996844 0.0157182 L 179.095815 0.0157182 C 196.215609 0.0157182 210.095818 13.895928 210.095818 31.015721 L 210.095818 870.859543 C 210.095818 887.979336 196.215609 901.859546 179.095815 901.859546 L 30.996844 901.859546 C 13.877051 901.859546 0.00205002 887.979336 0.00205002 870.859543 L 0.00205002 31.015721 C 0.00205002 13.895928 13.877051 0.0157182 30.996844 0.0157182 Z M 30.996844 0.0157182 " stroke="#000000" stroke-width="48" stroke-opacity="1" stroke-miterlimit="4"/></g></g><g clip-path="url(#a5ec96b205)"><g clip-path="url(#27d8e86986)"><g clip-path="url(#e28feef5d3)"><g transform="matrix(1, 0, 0, 1, 758, 209)"><g clip-path="url(#45a94fc54f)"><g clip-path="url(#c30e3b40af)"><g clip-path="url(#8d8842e854)"><g clip-path="url(#8ed68aa3dc)"><path fill="#8b66f0" d="M -6.015625 59.433594 L 184.308594 -5.785156 L 481.359375 861.085938 L 291.035156 926.304688 Z M -6.015625 59.433594 " fill-opacity="1" fill-rule="nonzero"/></g></g></g></g></g></g></g></g><g clip-path="url(#918c7eab79)"><g clip-path="url(#3fa91e2772)"><g clip-path="url(#45808d7634)"><g clip-path="url(#65af9d0427)"><path stroke-linecap="butt" transform="matrix(0.7095, -0.243125, 0.243125, 0.7095, 751.983065, 268.433806)" fill="none" stroke-linejoin="miter" d="M 30.998089 0.00145087 L 237.250088 0.00201568 C 245.470668 0.0000781137 253.357477 3.269734 259.172358 9.083233 C 264.982311 14.895044 268.24827 22.78062 268.250207 31.0012 L 268.249102 1190.405495 C 268.25104 1198.626076 264.983072 1206.507958 259.169573 1212.322838 C 253.356074 1218.137719 245.470498 1221.403677 237.249917 1221.405615 L 30.997919 1221.40505 C 22.779027 1221.40206 14.890529 1218.137332 9.080576 1212.325521 C 3.265695 1206.512022 -0.000263309 1198.626446 -0.000512509 1190.400938 L -0.00109568 31.001571 C 0.00189384 22.782678 3.266623 14.894181 9.078433 9.084227 C 14.891933 3.269347 22.777508 0.00338844 30.998089 0.00145087 Z M 30.998089 0.00145087 " stroke="#000000" stroke-width="48" stroke-opacity="1" stroke-miterlimit="4"/></g></g></g></g><g clip-path="url(#998672f580)"><g clip-path="url(#91a95710db)"><g clip-path="url(#bdbfb72181)"><g transform="matrix(1, 0, 0, 1, 1049, 513)"><g clip-path="url(#4adb712b8c)"><g clip-path="url(#802a0f4f40)"><g clip-path="url(#bbb233c3ec)"><g clip-path="url(#c893c64f05)"><path fill="#8b66f0" d="M -5.34375 40.8125 L 130.101562 -5.8125 L 330.253906 575.660156 L 194.808594 622.28125 Z M -5.34375 40.8125 " fill-opacity="1" fill-rule="nonzero"/></g></g></g></g></g></g></g></g><g clip-path="url(#9a538ede7a)"><g clip-path="url(#99e90853c5)"><g clip-path="url(#7ae797ccd6)"><g clip-path="url(#2a548b1b9f)"><path stroke-linecap="butt" transform="matrix(0.709163, -0.244107, 0.244107, 0.709163, 1043.655423, 553.81246)" fill="none" stroke-linejoin="miter" d="M 30.999192 0.0230765 L 159.986768 0.0208687 C 177.106715 0.0200284 190.984677 13.902218 190.985517 31.022165 L 190.986419 788.837234 C 190.985564 805.962106 177.10507 819.835143 159.985123 819.835983 L 30.997547 819.838191 C 13.8776 819.839032 -0.000362494 805.956842 -0.00120274 788.836895 L -0.00210477 31.021826 C -0.00294502 13.901879 13.879245 0.0239167 30.999192 0.0230765 Z M 30.999192 0.0230765 " stroke="#000000" stroke-width="48" stroke-opacity="1" stroke-miterlimit="4"/></g></g></g></g><g clip-path="url(#a6ba908ef4)"><g clip-path="url(#7590c98431)"><g transform="matrix(1, 0, 0, 1, 396, 1005)"><g clip-path="url(#b5eaad3f23)"><g clip-path="url(#fde4195790)"><g clip-path="url(#8b6271276f)"><path fill="#f8f9fa" d="M 0.578125 92.113281 L 0.578125 0.625 L 485.546875 0.625 L 485.546875 92.113281 Z M 0.578125 92.113281 " fill-opacity="1" fill-rule="nonzero"/></g></g></g></g></g></g><g clip-path="url(#fec4ecfe38)"><g clip-path="url(#fed404a325)"><path stroke-linecap="butt" transform="matrix(0, -0.75, 0.75, 0, 396.576885, 1097.11371)" fill="none" stroke-linejoin="miter" d="M 31.000574 0.00686195 L 90.984954 0.00686195 C 108.104747 0.00686195 121.984957 13.881863 121.984957 31.001656 L 121.984957 615.777748 C 121.984957 632.897541 108.104747 646.777751 90.984954 646.777751 L 31.000574 646.777751 C 13.880781 646.777751 0.000571003 632.897541 0.000571003 615.777748 L 0.000571003 31.001656 C 0.000571003 13.881863 13.880781 0.00686195 31.000574 0.00686195 Z M 31.000574 0.00686195 " stroke="#000000" stroke-width="36" stroke-opacity="1" stroke-miterlimit="4"/></g></g><g clip-path="url(#f8c00549fa)"><g clip-path="url(#d66ac3819a)"><g transform="matrix(1, 0, 0, 1, 892, 1005)"><g clip-path="url(#ca21a42d46)"><g clip-path="url(#6c7bebfc49)"><g clip-path="url(#32f62e594f)"><path fill="#8b66f0" d="M 0.269531 92.117188 L 0.269531 0.625 L 91.761719 0.625 L 91.761719 92.117188 Z M 0.269531 92.117188 " fill-opacity="1" fill-rule="nonzero"/></g></g></g></g></g></g><g clip-path="url(#70b88150c6)"><g clip-path="url(#6624d1372e)"><path stroke-linecap="butt" transform="matrix(0, -0.75, 0.75, 0, 892.270156, 1097.115366)" fill="none" stroke-linejoin="miter" d="M 60.992368 -0.000833661 C 27.304865 -0.000833661 -0.00242933 27.30646 -0.00242933 60.993963 C -0.00242933 94.676258 27.304865 121.983552 60.992368 121.983552 C 94.674662 121.983552 121.981956 94.676258 121.981956 60.993963 C 121.981956 27.30646 94.674662 -0.000833661 60.992368 -0.000833661 Z M 60.992368 -0.000833661 " stroke="#000000" stroke-width="36" stroke-opacity="1" stroke-miterlimit="4"/></g></g><g clip-path="url(#dc54ac3ede)"><g clip-path="url(#07e5504a24)"><g transform="matrix(1, 0, 0, 1, 193, 850)"><g clip-path="url(#61271d1b3c)"><g clip-path="url(#f80e619fe6)"><g clip-path="url(#d22f6515d7)"><path fill="#f8f9fa" d="M 0.800781 108.519531 L 0.800781 0.863281 L 560.53125 0.863281 L 560.53125 108.519531 Z M 0.800781 108.519531 " fill-opacity="1" fill-rule="nonzero"/></g></g></g></g></g></g><g clip-path="url(#6bca45828f)"><g clip-path="url(#94743ba51a)"><path stroke-linecap="butt" transform="matrix(0, -0.75, 0.75, 0, 193.799445, 958.519289)" fill="none" stroke-linejoin="miter" d="M 30.99968 0.0226144 L 112.536146 0.0226144 C 129.65073 0.0226144 143.53094 13.902824 143.53094 31.017409 L 143.53094 715.418509 C 143.53094 732.538302 129.65073 746.413304 112.536146 746.413304 L 30.99968 746.413304 C 13.879887 746.413304 -0.000322414 732.538302 -0.000322414 715.418509 L -0.000322414 31.017409 C -0.000322414 13.902824 13.879887 0.0226144 30.99968 0.0226144 Z M 30.99968 0.0226144 " stroke="#000000" stroke-width="36" stroke-opacity="1" stroke-miterlimit="4"/></g></g><g clip-path="url(#83fd136448)"><g clip-path="url(#d8f52a5e2d)"><g transform="matrix(1, 0, 0, 1, 765, 852)"><g clip-path="url(#e1169f8250)"><g clip-path="url(#8d916ef675)"><g clip-path="url(#56c261269a)"><path fill="#8b66f0" d="M 0.921875 106.519531 L 0.921875 0.515625 L 106.925781 0.515625 L 106.925781 106.519531 Z M 0.921875 106.519531 " fill-opacity="1" fill-rule="nonzero"/></g></g></g></g></g></g><g clip-path="url(#f7f3678b87)"><g clip-path="url(#12463096c9)"><path stroke-linecap="butt" transform="matrix(0, -0.75, 0.75, 0, 765.922287, 958.520921)" fill="none" stroke-linejoin="miter" d="M 70.663318 -0.000549838 C 31.637273 -0.000549838 0.00185359 31.63487 0.00185359 70.666123 C 0.00185359 109.692168 31.637273 141.327587 70.663318 141.327587 C 109.689363 141.327587 141.329991 109.692168 141.329991 70.666123 C 141.329991 31.63487 109.689363 -0.000549838 70.663318 -0.000549838 Z M 70.663318 -0.000549838 " stroke="#000000" stroke-width="36" stroke-opacity="1" stroke-miterlimit="4"/></g></g><g clip-path="url(#5aa134d574)"><g clip-path="url(#051cd12e22)"><g transform="matrix(1, 0, 0, 1, 112, 701)"><g clip-path="url(#e07ee67c7a)"><g clip-path="url(#f1bb0c889d)"><g clip-path="url(#b6f9ac4ec0)"><path fill="#f8f9fa" d="M 0.246094 104.722656 L 0.246094 0.953125 L 530.859375 0.953125 L 530.859375 104.722656 Z M 0.246094 104.722656 " fill-opacity="1" fill-rule="nonzero"/></g></g></g></g></g></g><g clip-path="url(#2a8e6f5824)"><g clip-path="url(#422a1cb905)"><path stroke-linecap="butt" transform="matrix(0, -0.75, 0.75, 0, 112.246744, 805.723687)" fill="none" stroke-linejoin="miter" d="M 31.001376 0.00434069 L 107.360758 0.00434069 C 124.480551 0.00434069 138.360761 13.879342 138.360761 30.999135 L 138.360761 676.358566 C 138.360761 693.478359 124.480551 707.358568 107.360758 707.358568 L 31.001376 707.358568 C 13.876375 707.358568 0.0013738 693.478359 0.0013738 676.358566 L 0.0013738 30.999135 C 0.0013738 13.879342 13.876375 0.00434069 31.001376 0.00434069 Z M 31.001376 0.00434069 " stroke="#000000" stroke-width="36" stroke-opacity="1" stroke-miterlimit="4"/></g></g><g clip-path="url(#47fa1da44f)"><g clip-path="url(#1fa618d50b)"><g transform="matrix(1, 0, 0, 1, 654, 701)"><g clip-path="url(#29039d6e93)"><g clip-path="url(#de89619e2e)"><g clip-path="url(#977fb14d83)"><path fill="#8b66f0" d="M 0.390625 101.210938 L 0.390625 0.957031 L 100.644531 0.957031 L 100.644531 101.210938 Z M 0.390625 101.210938 " fill-opacity="1" fill-rule="nonzero"/></g></g></g></g></g></g><g clip-path="url(#bfb997ed9f)"><g clip-path="url(#d17879dce8)"><path stroke-linecap="butt" transform="matrix(0, -0.75, 0.75, 0, 654.389497, 802.210159)" fill="none" stroke-linejoin="miter" d="M 66.837509 0.00150402 C 29.926048 0.00150402 -0.00103813 29.923382 -0.00103813 66.834843 C -0.00103813 103.746305 29.926048 133.673391 66.837509 133.673391 C 103.748971 133.673391 133.670848 103.746305 133.670848 66.834843 C 133.670848 29.923382 103.748971 0.00150402 66.837509 0.00150402 Z M 66.837509 0.00150402 " stroke="#000000" stroke-width="36" stroke-opacity="1" stroke-miterlimit="4"/></g></g><g clip-path="url(#82234a61cf)"><g clip-path="url(#2f0f3a4cae)"><g transform="matrix(1, 0, 0, 1, 215, 558)"><g clip-path="url(#4baa020426)"><g clip-path="url(#25f64b3552)"><g clip-path="url(#ae4c2e86e5)"><path fill="#f8f9fa" d="M 0.84375 99.035156 L 0.84375 0.453125 L 508.019531 0.453125 L 508.019531 99.035156 Z M 0.84375 99.035156 " fill-opacity="1" fill-rule="nonzero"/></g></g></g></g></g></g><g clip-path="url(#5958a8e3c9)"><g clip-path="url(#b367a9e870)"><path stroke-linecap="butt" transform="matrix(0, -0.75, 0.75, 0, 215.843321, 657.037075)" fill="none" stroke-linejoin="miter" d="M 30.997353 0.0214051 L 100.440068 0.0214051 C 117.559861 0.0214051 131.44007 13.896406 131.44007 31.016199 L 131.44007 645.297502 C 131.44007 662.417296 117.559861 676.292297 100.440068 676.292297 L 30.997353 676.292297 C 13.87756 676.292297 0.00255888 662.417296 0.00255888 645.297502 L 0.00255888 31.016199 C 0.00255888 13.896406 13.87756 0.0214051 30.997353 0.0214051 Z M 30.997353 0.0214051 " stroke="#000000" stroke-width="36" stroke-opacity="1" stroke-miterlimit="4"/></g></g><g clip-path="url(#47a3f13384)"><g clip-path="url(#9da467975b)"><g transform="matrix(1, 0, 0, 1, 734, 558)"><g clip-path="url(#a6f3883626)"><g clip-path="url(#dee375e396)"><g clip-path="url(#54b62573df)"><path fill="#8b66f0" d="M 0.113281 95.582031 L 0.113281 0.457031 L 95.234375 0.457031 L 95.234375 95.582031 Z M 0.113281 95.582031 " fill-opacity="1" fill-rule="nonzero"/></g></g></g></g></g></g><g clip-path="url(#29f90be418)"><g clip-path="url(#22b20de742)"><path stroke-linecap="butt" transform="matrix(0, -0.75, 0.75, 0, 734.111346, 653.581268)" fill="none" stroke-linejoin="miter" d="M 63.41565 0.00258018 C 28.389608 0.00258018 -0.00101806 28.393206 -0.00101806 63.41404 C -0.00101806 98.434874 28.389608 126.830708 63.41565 126.830708 C 98.436484 126.830708 126.82711 98.434874 126.82711 63.41404 C 126.82711 28.393206 98.436484 0.00258018 63.41565 0.00258018 Z M 63.41565 0.00258018 " stroke="#000000" stroke-width="36" stroke-opacity="1" stroke-miterlimit="4"/></g></g><g clip-path="url(#14a6af891d)"><g clip-path="url(#8652f4a1ec)"><g clip-path="url(#e5c97b549b)"><g transform="matrix(1, 0, 0, 1, 799, 252)"><g clip-path="url(#660cfffe7c)"><g clip-path="url(#e61c41890f)"><g clip-path="url(#c6135ea150)"><g clip-path="url(#46830def69)"><path fill="#f8f9fa" d="M -5.621094 38.121094 L 123.910156 -6.265625 L 348.445312 648.976562 L 218.914062 693.363281 Z M -5.621094 38.121094 " fill-opacity="1" fill-rule="nonzero"/></g></g></g></g></g></g></g></g><g clip-path="url(#3829453f74)"><g clip-path="url(#c55ac2fe65)"><g clip-path="url(#f6f8ba9e38)"><g clip-path="url(#b5b1c8ae27)"><path stroke-linecap="butt" transform="matrix(0.7095, -0.243125, 0.243125, 0.7095, 793.380853, 290.121341)" fill="none" stroke-linejoin="miter" d="M 31.002164 0.00830243 L 151.564969 0.00729067 C 159.783861 0.0102804 167.667432 3.273321 173.482313 9.086821 C 179.297194 14.900321 182.563152 22.785897 182.56509 31.006478 L 182.5596 892.367148 C 182.561538 900.587729 179.298497 908.4713 173.484997 914.286181 C 167.671497 920.101061 159.785921 923.36702 151.560413 923.367269 L 30.999296 923.363354 C 22.778715 923.365291 14.890217 920.100562 9.080264 914.28875 C 3.265383 908.475251 -0.000575471 900.589675 -0.000824501 892.364166 L -0.00195055 31.006735 C 0.00103914 22.787842 3.265768 14.899344 9.07758 9.089391 C 14.891079 3.27451 22.776655 0.00855146 31.002164 0.00830243 Z M 31.002164 0.00830243 " stroke="#000000" stroke-width="36" stroke-opacity="1" stroke-miterlimit="4"/></g></g></g></g><g clip-path="url(#10f01c6b07)"><g clip-path="url(#5f3b2e19ea)"><g clip-path="url(#418414aea4)"><g transform="matrix(1, 0, 0, 1, 1047, 934)"><g clip-path="url(#d9ab39b6b3)"><g clip-path="url(#e1d79a24bc)"><g clip-path="url(#86c8fd0579)"><g clip-path="url(#3dd01b1f12)"><path fill="#8b66f0" d="M -16.964844 22.871094 L 97.929688 -16.5 L 139.761719 105.574219 L 24.867188 144.945312 Z M -16.964844 22.871094 " fill-opacity="1" fill-rule="nonzero"/></g></g></g></g></g></g></g></g><g clip-path="url(#0fbd57d6a3)"><g clip-path="url(#f388157976)"><g clip-path="url(#a0352e5819)"><g clip-path="url(#861dd8675a)"><path stroke-linecap="butt" transform="matrix(0.7095, -0.243125, 0.243125, 0.7095, 1030.034705, 956.87181)" fill="none" stroke-linejoin="miter" d="M 80.959646 0.00405533 C 36.24807 0.00491523 -0.0018408 38.455238 -0.000667813 85.881202 C -0.00118319 133.312092 36.248353 171.75888 80.959929 171.75802 C 125.676433 171.758848 161.919728 133.311764 161.920244 85.880874 C 161.919071 38.45491 125.67615 0.0048838 80.959646 0.00405533 Z M 80.959646 0.00405533 " stroke="#000000" stroke-width="36" stroke-opacity="1" stroke-miterlimit="4"/></g></g></g></g><g clip-path="url(#7b791c0875)"><g clip-path="url(#6a7bb94065)"><g clip-path="url(#98d6838ef8)"><g transform="matrix(1, 0, 0, 1, 1084, 545)"><g clip-path="url(#9a755fe1d0)"><g clip-path="url(#9fdc6cb220)"><g clip-path="url(#fd8607d5b3)"><g clip-path="url(#7fcc9aa8c8)"><path fill="#f8f9fa" d="M -5.308594 23.082031 L 77.71875 -5.496094 L 228.3125 432.007812 L 145.289062 460.585938 Z M -5.308594 23.082031 " fill-opacity="1" fill-rule="nonzero"/></g></g></g></g></g></g></g></g><g clip-path="url(#05f769c9f7)"><g clip-path="url(#f1772b8a0c)"><g clip-path="url(#d083fead8f)"><g clip-path="url(#eee83e1964)"><path stroke-linecap="butt" transform="matrix(0.709163, -0.244107, 0.244107, 0.709163, 1078.693068, 568.082331)" fill="none" stroke-linejoin="miter" d="M 30.997736 0.0331131 L 86.065211 0.0289114 C 103.183463 0.0329959 117.06312 13.910261 117.06396 31.030208 L 117.062792 585.958994 C 117.065328 603.074016 103.183138 616.951978 86.063191 616.952819 L 30.997411 616.952095 C 13.877464 616.952936 -0.00219321 603.075671 0.00189128 585.957419 L -0.0018655 31.026938 C 0.002219 13.908686 13.879484 0.0290286 30.997736 0.0331131 Z M 30.997736 0.0331131 " stroke="#000000" stroke-width="36" stroke-opacity="1" stroke-miterlimit="4"/></g></g></g></g><g clip-path="url(#ba4e36ba2d)"><g clip-path="url(#ad6c7472ef)"><g clip-path="url(#17c2d74f9b)"><g transform="matrix(1, 0, 0, 1, 1244, 998)"><g clip-path="url(#dd155d588f)"><g clip-path="url(#29c0b71c28)"><g clip-path="url(#d69a991054)"><g clip-path="url(#b3e7653ba3)"><path fill="#8b66f0" d="M -11.527344 17.136719 L 70.238281 -11.007812 L 98.382812 70.753906 L 16.617188 98.902344 Z M -11.527344 17.136719 " fill-opacity="1" fill-rule="nonzero"/></g></g></g></g></g></g></g></g><g clip-path="url(#9ca73920ce)"><g clip-path="url(#9b378a836f)"><g clip-path="url(#c825c28d3f)"><g clip-path="url(#1bebd5cfa7)"><path stroke-linecap="butt" transform="matrix(0.709163, -0.244107, 0.244107, 0.709163, 1232.471639, 1015.135549)" fill="none" stroke-linejoin="miter" d="M 57.650879 -0.000126893 C 25.807525 0.0002476 0.00244348 25.808668 -0.00210677 57.650326 C -0.0000370928 89.488754 25.808383 115.293836 57.650041 115.298386 C 89.48847 115.296317 115.298476 89.489592 115.298102 57.646239 C 115.296032 25.80781 89.487612 0.00272817 57.650879 -0.000126893 Z M 57.650879 -0.000126893 " stroke="#000000" stroke-width="36" stroke-opacity="1" stroke-miterlimit="4"/></g></g></g></g><path stroke-linecap="butt" transform="matrix(0, -0.75, 0.75, 0, 465.745529, 1089.657414)" fill="none" stroke-linejoin="miter" d="M 0.00155219 7.000753 L 102.105728 7.000753 " stroke="#000000" stroke-width="14" stroke-opacity="1" stroke-miterlimit="4"/><path stroke-linecap="butt" transform="matrix(0, -0.75, 0.75, 0, 527.387388, 1089.657414)" fill="none" stroke-linejoin="miter" d="M 0.00155219 6.999108 L 102.105728 6.999108 " stroke="#000000" stroke-width="14" stroke-opacity="1" stroke-miterlimit="4"/><path stroke-linecap="butt" transform="matrix(0, -0.75, 0.75, 0, 271.277823, 949.887954)" fill="none" stroke-linejoin="miter" d="M 0.00164724 6.999362 L 118.298532 6.999362 " stroke="#000000" stroke-width="14" stroke-opacity="1" stroke-miterlimit="4"/><path stroke-linecap="butt" transform="matrix(0, -0.75, 0.75, 0, 343.994769, 949.887954)" fill="none" stroke-linejoin="miter" d="M 0.00164724 7.001768 L 118.298532 7.001768 " stroke="#000000" stroke-width="14" stroke-opacity="1" stroke-miterlimit="4"/><path stroke-linecap="butt" transform="matrix(0, -0.75, 0.75, 0, 185.248582, 795.693607)" fill="none" stroke-linejoin="miter" d="M -0.00227338 7.001891 L 111.883153 7.001891 " stroke="#000000" stroke-width="14" stroke-opacity="1" stroke-miterlimit="4"/><path stroke-linecap="butt" transform="matrix(0, -0.75, 0.75, 0, 255.055324, 794.036984)" fill="none" stroke-linejoin="miter" d="M 0.00243648 6.999152 L 111.882654 6.999152 " stroke="#000000" stroke-width="14" stroke-opacity="1" stroke-miterlimit="4"/><path stroke-linecap="butt" transform="matrix(0, -0.75, 0.75, 0, 285.253485, 648.31598)" fill="none" stroke-linejoin="miter" d="M -0.000568122 7.000563 L 106.160899 7.000563 " stroke="#000000" stroke-width="14" stroke-opacity="1" stroke-miterlimit="4"/><path stroke-linecap="butt" transform="matrix(0, -0.75, 0.75, 0, 354.947844, 645.830852)" fill="none" stroke-linejoin="miter" d="M -0.00157184 7.001833 L 106.159896 7.001833 " stroke="#000000" stroke-width="14" stroke-opacity="1" stroke-miterlimit="4"/><path stroke-linecap="butt" transform="matrix(0.706443, -0.25187, 0.25187, 0.706443, 833.144386, 383.012995)" fill="none" stroke-linejoin="miter" d="M -0.00105912 6.998116 L 164.693457 6.999633 " stroke="#000000" stroke-width="14" stroke-opacity="1" stroke-miterlimit="4"/><path stroke-linecap="butt" transform="matrix(0.708968, -0.244672, 0.244672, 0.708968, 865.172479, 472.443155)" fill="none" stroke-linejoin="miter" d="M 0.00179394 7.00107 L 163.151487 7.001415 " stroke="#000000" stroke-width="14" stroke-opacity="1" stroke-miterlimit="4"/><path stroke-linecap="butt" transform="matrix(0.709163, -0.244107, 0.244107, 0.709163, 1108.850218, 630.997486)" fill="none" stroke-linejoin="miter" d="M -0.000168058 6.998972 L 96.504977 6.997487 " stroke="#000000" stroke-width="14" stroke-opacity="1" stroke-miterlimit="4"/><path stroke-linecap="butt" transform="matrix(0.709163, -0.244107, 0.244107, 0.709163, 1126.79432, 686.475689)" fill="none" stroke-linejoin="miter" d="M 0.000374323 7.002353 L 96.50552 7.000868 " stroke="#000000" stroke-width="14" stroke-opacity="1" stroke-miterlimit="4"/></svg>