<svg xmlns="http://www.w3.org/2000/svg" xmlns:xlink="http://www.w3.org/1999/xlink" width="2000" zoomAndPan="magnify" viewBox="0 200 1000 1000" height="2000" preserveAspectRatio="xMidYMid meet" version="1.0"><defs><clipPath id="41f01df5e8"><path d="M 365.738281 975.585938 L 1016.367188 975.585938 L 1016.367188 1127.144531 L 365.738281 1127.144531 Z M 365.738281 975.585938 " clip-rule="nonzero"/></clipPath><clipPath id="7d93ede7d7"><path d="M 365.738281 1103.894531 L 365.738281 998.835938 C 365.738281 985.996094 376.148438 975.585938 388.988281 975.585938 L 993.058594 975.585938 C 1005.898438 975.585938 1016.308594 985.996094 1016.308594 998.835938 L 1016.308594 1103.894531 C 1016.308594 1116.734375 1005.898438 1127.144531 993.058594 1127.144531 L 388.988281 1127.144531 C 376.148438 1127.144531 365.738281 1116.734375 365.738281 1103.894531 Z M 365.738281 1103.894531 " clip-rule="nonzero"/></clipPath><clipPath id="309bdb841f"><path d="M 0.738281 0.585938 L 651.367188 0.585938 L 651.367188 152.144531 L 0.738281 152.144531 Z M 0.738281 0.585938 " clip-rule="nonzero"/></clipPath><clipPath id="5b57b5e849"><path d="M 0.738281 128.894531 L 0.738281 23.835938 C 0.738281 10.996094 11.148438 0.585938 23.988281 0.585938 L 628.058594 0.585938 C 640.898438 0.585938 651.308594 10.996094 651.308594 23.835938 L 651.308594 128.894531 C 651.308594 141.734375 640.898438 152.144531 628.058594 152.144531 L 23.988281 152.144531 C 11.148438 152.144531 0.738281 141.734375 0.738281 128.894531 Z M 0.738281 128.894531 " clip-rule="nonzero"/></clipPath><clipPath id="330ebcdc10"><rect x="0" width="652" y="0" height="153"/></clipPath><clipPath id="11b1fcd846"><path d="M 365.757812 975.644531 L 1015.988281 975.644531 L 1015.988281 1127.144531 L 365.757812 1127.144531 Z M 365.757812 975.644531 " clip-rule="nonzero"/></clipPath><clipPath id="9c2b6cfd2c"><path d="M 365.757812 1103.894531 L 365.757812 998.84375 C 365.757812 986.007812 376.164062 975.597656 389.003906 975.597656 L 993.035156 975.597656 C 1005.875 975.597656 1016.285156 986.007812 1016.285156 998.84375 L 1016.285156 1103.894531 C 1016.285156 1116.734375 1005.875 1127.144531 993.035156 1127.144531 L 389.003906 1127.144531 C 376.164062 1127.144531 365.757812 1116.734375 365.757812 1103.894531 Z M 365.757812 1103.894531 " clip-rule="nonzero"/></clipPath><clipPath id="8146c32324"><path d="M 155.871094 817.722656 L 909.707031 817.722656 L 909.707031 993.320312 L 155.871094 993.320312 Z M 155.871094 817.722656 " clip-rule="nonzero"/></clipPath><clipPath id="1ffee97fd7"><path d="M 155.871094 970.070312 L 155.871094 840.972656 C 155.871094 828.132812 166.28125 817.722656 179.121094 817.722656 L 886.390625 817.722656 C 899.230469 817.722656 909.640625 828.132812 909.640625 840.972656 L 909.640625 970.070312 C 909.640625 982.910156 899.230469 993.320312 886.390625 993.320312 L 179.121094 993.320312 C 166.28125 993.320312 155.871094 982.910156 155.871094 970.070312 Z M 155.871094 970.070312 " clip-rule="nonzero"/></clipPath><clipPath id="9abe62a32f"><path d="M 0.871094 0.722656 L 754.707031 0.722656 L 754.707031 176.320312 L 0.871094 176.320312 Z M 0.871094 0.722656 " clip-rule="nonzero"/></clipPath><clipPath id="ef6f464901"><path d="M 0.871094 153.070312 L 0.871094 23.972656 C 0.871094 11.132812 11.28125 0.722656 24.121094 0.722656 L 731.390625 0.722656 C 744.230469 0.722656 754.640625 11.132812 754.640625 23.972656 L 754.640625 153.070312 C 754.640625 165.910156 744.230469 176.320312 731.390625 176.320312 L 24.121094 176.320312 C 11.28125 176.320312 0.871094 165.910156 0.871094 153.070312 Z M 0.871094 153.070312 " clip-rule="nonzero"/></clipPath><clipPath id="99d2b89685"><rect x="0" width="755" y="0" height="177"/></clipPath><clipPath id="7ac4862293"><path d="M 155.878906 817.820312 L 909.621094 817.820312 L 909.621094 993.320312 L 155.878906 993.320312 Z M 155.878906 817.820312 " clip-rule="nonzero"/></clipPath><clipPath id="dabc2ee1bf"><path d="M 155.878906 970.070312 L 155.878906 840.976562 C 155.878906 828.136719 166.285156 817.726562 179.128906 817.726562 L 886.378906 817.726562 C 899.21875 817.726562 909.628906 828.136719 909.628906 840.976562 L 909.628906 970.070312 C 909.628906 982.910156 899.21875 993.320312 886.378906 993.320312 L 179.128906 993.320312 C 166.285156 993.320312 155.878906 982.910156 155.878906 970.070312 Z M 155.878906 970.070312 " clip-rule="nonzero"/></clipPath><clipPath id="19b04d1d9b"><path d="M 77.417969 669.039062 L 790.375 669.039062 L 790.375 835.113281 L 77.417969 835.113281 Z M 77.417969 669.039062 " clip-rule="nonzero"/></clipPath><clipPath id="e385feb6ed"><path d="M 77.417969 811.863281 L 77.417969 692.289062 C 77.417969 679.449219 87.828125 669.039062 100.667969 669.039062 L 767.0625 669.039062 C 779.902344 669.039062 790.3125 679.449219 790.3125 692.289062 L 790.3125 811.863281 C 790.3125 824.703125 779.902344 835.113281 767.0625 835.113281 L 100.667969 835.113281 C 87.828125 835.113281 77.417969 824.703125 77.417969 811.863281 Z M 77.417969 811.863281 " clip-rule="nonzero"/></clipPath><clipPath id="a7fcfe85e3"><path d="M 0.417969 0.0390625 L 713.320312 0.0390625 L 713.320312 166.113281 L 0.417969 166.113281 Z M 0.417969 0.0390625 " clip-rule="nonzero"/></clipPath><clipPath id="b762d26cf0"><path d="M 0.417969 142.863281 L 0.417969 23.289062 C 0.417969 10.449219 10.828125 0.0390625 23.667969 0.0390625 L 690.0625 0.0390625 C 702.902344 0.0390625 713.3125 10.449219 713.3125 23.289062 L 713.3125 142.863281 C 713.3125 155.703125 702.902344 166.113281 690.0625 166.113281 L 23.667969 166.113281 C 10.828125 166.113281 0.417969 155.703125 0.417969 142.863281 Z M 0.417969 142.863281 " clip-rule="nonzero"/></clipPath><clipPath id="e09de3f345"><rect x="0" width="714" y="0" height="167"/></clipPath><clipPath id="9ea53d458c"><path d="M 77.433594 669.363281 L 790.667969 669.363281 L 790.667969 835.113281 L 77.433594 835.113281 Z M 77.433594 669.363281 " clip-rule="nonzero"/></clipPath><clipPath id="f3cd085ae4"><path d="M 77.433594 811.867188 L 77.433594 692.296875 C 77.433594 679.457031 87.84375 669.046875 100.683594 669.046875 L 767.039062 669.046875 C 779.878906 669.046875 790.289062 679.457031 790.289062 692.296875 L 790.289062 811.867188 C 790.289062 824.707031 779.878906 835.113281 767.039062 835.113281 L 100.683594 835.113281 C 87.84375 835.113281 77.433594 824.707031 77.433594 811.867188 Z M 77.433594 811.867188 " clip-rule="nonzero"/></clipPath><clipPath id="d12a8ed66c"><path d="M 186.667969 527.230469 L 863.136719 527.230469 L 863.136719 684.804688 L 186.667969 684.804688 Z M 186.667969 527.230469 " clip-rule="nonzero"/></clipPath><clipPath id="9b5dfa4ced"><path d="M 186.667969 661.554688 L 186.667969 550.480469 C 186.667969 537.640625 197.078125 527.230469 209.917969 527.230469 L 839.828125 527.230469 C 852.667969 527.230469 863.078125 537.640625 863.078125 550.480469 L 863.078125 661.554688 C 863.078125 674.398438 852.667969 684.804688 839.828125 684.804688 L 209.917969 684.804688 C 197.078125 684.804688 186.667969 674.398438 186.667969 661.554688 Z M 186.667969 661.554688 " clip-rule="nonzero"/></clipPath><clipPath id="6815ce09e4"><path d="M 0.667969 0.230469 L 677.136719 0.230469 L 677.136719 157.804688 L 0.667969 157.804688 Z M 0.667969 0.230469 " clip-rule="nonzero"/></clipPath><clipPath id="8da9b3185e"><path d="M 0.667969 134.554688 L 0.667969 23.480469 C 0.667969 10.640625 11.078125 0.230469 23.917969 0.230469 L 653.828125 0.230469 C 666.667969 0.230469 677.078125 10.640625 677.078125 23.480469 L 677.078125 134.554688 C 677.078125 147.398438 666.667969 157.804688 653.828125 157.804688 L 23.917969 157.804688 C 11.078125 157.804688 0.667969 147.398438 0.667969 134.554688 Z M 0.667969 134.554688 " clip-rule="nonzero"/></clipPath><clipPath id="9732daa2c3"><rect x="0" width="678" y="0" height="158"/></clipPath><clipPath id="b78b106fb9"><path d="M 186.679688 527.304688 L 863.167969 527.304688 L 863.167969 684.804688 L 186.679688 684.804688 Z M 186.679688 527.304688 " clip-rule="nonzero"/></clipPath><clipPath id="9794d73892"><path d="M 186.679688 661.558594 L 186.679688 550.484375 C 186.679688 537.644531 197.089844 527.234375 209.929688 527.234375 L 839.8125 527.234375 C 852.652344 527.234375 863.0625 537.644531 863.0625 550.484375 L 863.0625 661.558594 C 863.0625 674.398438 852.652344 684.804688 839.8125 684.804688 L 209.929688 684.804688 C 197.089844 684.804688 186.679688 674.398438 186.679688 661.558594 Z M 186.679688 661.558594 " clip-rule="nonzero"/></clipPath><clipPath id="2402c358f2"><path d="M 758 209 L 1233 209 L 1233 1129 L 758 1129 Z M 758 209 " clip-rule="nonzero"/></clipPath><clipPath id="cfd00e48d0"><path d="M 751.984375 268.433594 L 942.308594 203.214844 L 1239.359375 1070.085938 L 1049.035156 1135.304688 Z M 751.984375 268.433594 " clip-rule="nonzero"/></clipPath><clipPath id="8db64fa58e"><path d="M 773.976562 260.898438 L 920.3125 210.75 C 926.148438 208.753906 932.535156 209.152344 938.074219 211.863281 C 943.613281 214.574219 947.847656 219.375 949.84375 225.210938 L 1231.726562 1047.8125 C 1233.726562 1053.644531 1233.324219 1060.035156 1230.613281 1065.570312 C 1227.902344 1071.109375 1223.101562 1075.34375 1217.269531 1077.34375 L 1070.933594 1127.488281 C 1065.097656 1129.488281 1058.710938 1129.085938 1053.171875 1126.375 C 1047.632812 1123.664062 1043.398438 1118.863281 1041.402344 1113.03125 L 759.519531 290.429688 C 757.519531 284.59375 757.921875 278.207031 760.632812 272.667969 C 763.34375 267.128906 768.144531 262.894531 773.976562 260.898438 Z M 773.976562 260.898438 " clip-rule="nonzero"/></clipPath><clipPath id="12783d3586"><path d="M 0 0 L 475 0 L 475 920 L 0 920 Z M 0 0 " clip-rule="nonzero"/></clipPath><clipPath id="ef105b79be"><path d="M -6.015625 59.433594 L 184.308594 -5.785156 L 481.359375 861.085938 L 291.035156 926.304688 Z M -6.015625 59.433594 " clip-rule="nonzero"/></clipPath><clipPath id="53f70ec46b"><path d="M 15.976562 51.898438 L 162.3125 1.75 C 168.148438 -0.246094 174.535156 0.152344 180.074219 2.863281 C 185.613281 5.574219 189.847656 10.375 191.84375 16.210938 L 473.726562 838.8125 C 475.726562 844.644531 475.324219 851.035156 472.613281 856.570312 C 469.902344 862.109375 465.101562 866.34375 459.269531 868.34375 L 312.933594 918.488281 C 307.097656 920.488281 300.710938 920.085938 295.171875 917.375 C 289.632812 914.664062 285.398438 909.863281 283.402344 904.03125 L 1.519531 81.429688 C -0.480469 75.59375 -0.078125 69.207031 2.632812 63.667969 C 5.34375 58.128906 10.144531 53.894531 15.976562 51.898438 Z M 15.976562 51.898438 " clip-rule="nonzero"/></clipPath><clipPath id="f5f1d53094"><rect x="0" width="475" y="0" height="920"/></clipPath><clipPath id="d9bce095ff"><path d="M 758 209 L 1233 209 L 1233 1129 L 758 1129 Z M 758 209 " clip-rule="nonzero"/></clipPath><clipPath id="04fec62f91"><path d="M 751.984375 268.433594 L 942.128906 203.277344 L 1238.984375 1069.574219 L 1048.839844 1134.734375 Z M 751.984375 268.433594 " clip-rule="nonzero"/></clipPath><clipPath id="15741c3ca9"><path d="M 751.984375 268.4375 L 942.34375 203.203125 L 1240.902344 1074.472656 L 1050.542969 1139.707031 Z M 751.984375 268.4375 " clip-rule="nonzero"/></clipPath><clipPath id="04bd53737a"><path d="M 773.976562 260.898438 L 920.3125 210.753906 C 926.144531 208.753906 932.535156 209.15625 938.074219 211.867188 C 943.609375 214.578125 947.84375 219.378906 949.84375 225.210938 L 1231.722656 1047.808594 C 1233.722656 1053.640625 1233.320312 1060.027344 1230.609375 1065.566406 C 1227.898438 1071.105469 1223.097656 1075.339844 1217.265625 1077.339844 L 1070.929688 1127.484375 C 1065.097656 1129.480469 1058.707031 1129.082031 1053.171875 1126.371094 C 1047.632812 1123.660156 1043.398438 1118.859375 1041.398438 1113.023438 L 759.519531 290.429688 C 757.523438 284.597656 757.921875 278.207031 760.632812 272.671875 C 763.34375 267.132812 768.144531 262.898438 773.976562 260.898438 Z M 773.976562 260.898438 " clip-rule="nonzero"/></clipPath><clipPath id="86c79b3c11"><path d="M 1049 513 L 1373 513 L 1373 1129 L 1049 1129 Z M 1049 513 " clip-rule="nonzero"/></clipPath><clipPath id="0a3559f182"><path d="M 1043.65625 553.8125 L 1179.101562 507.1875 L 1379.253906 1088.660156 L 1243.808594 1135.28125 Z M 1043.65625 553.8125 " clip-rule="nonzero"/></clipPath><clipPath id="db071007b2"><path d="M 1065.640625 546.246094 L 1157.117188 514.757812 C 1169.257812 510.578125 1182.492188 517.03125 1186.667969 529.171875 L 1371.667969 1066.621094 C 1375.847656 1078.761719 1369.394531 1091.992188 1357.253906 1096.171875 L 1265.773438 1127.660156 C 1253.632812 1131.839844 1240.402344 1125.386719 1236.222656 1113.246094 L 1051.222656 575.796875 C 1047.042969 563.65625 1053.496094 550.425781 1065.640625 546.246094 Z M 1065.640625 546.246094 " clip-rule="nonzero"/></clipPath><clipPath id="019fe433c1"><path d="M 0 0 L 324 0 L 324 616 L 0 616 Z M 0 0 " clip-rule="nonzero"/></clipPath><clipPath id="e06e95a13a"><path d="M -5.34375 40.8125 L 130.101562 -5.8125 L 330.253906 575.660156 L 194.808594 622.28125 Z M -5.34375 40.8125 " clip-rule="nonzero"/></clipPath><clipPath id="e3f1d2a152"><path d="M 16.640625 33.246094 L 108.117188 1.757812 C 120.257812 -2.421875 133.492188 4.03125 137.667969 16.171875 L 322.667969 553.621094 C 326.847656 565.761719 320.394531 578.992188 308.253906 583.171875 L 216.773438 614.660156 C 204.632812 618.839844 191.402344 612.386719 187.222656 600.246094 L 2.222656 62.796875 C -1.957031 50.65625 4.496094 37.425781 16.640625 33.246094 Z M 16.640625 33.246094 " clip-rule="nonzero"/></clipPath><clipPath id="59f80299c3"><rect x="0" width="324" y="0" height="616"/></clipPath><clipPath id="25f512e1e6"><path d="M 1049 513 L 1373 513 L 1373 1129 L 1049 1129 Z M 1049 513 " clip-rule="nonzero"/></clipPath><clipPath id="0429f24c2a"><path d="M 1043.65625 553.8125 L 1179.105469 507.1875 L 1379.273438 1088.703125 L 1243.824219 1135.324219 Z M 1043.65625 553.8125 " clip-rule="nonzero"/></clipPath><clipPath id="998451173c"><path d="M 1043.660156 553.828125 L 1181.195312 506.484375 L 1382.402344 1091.011719 L 1244.863281 1138.355469 Z M 1043.660156 553.828125 " clip-rule="nonzero"/></clipPath><clipPath id="8911c0d098"><path d="M 1065.644531 546.261719 L 1157.117188 514.773438 C 1169.257812 510.59375 1182.488281 517.050781 1186.667969 529.191406 L 1371.65625 1066.605469 C 1375.835938 1078.75 1369.378906 1091.976562 1357.238281 1096.15625 L 1265.765625 1127.644531 C 1253.625 1131.824219 1240.394531 1125.367188 1236.214844 1113.226562 L 1051.226562 575.8125 C 1047.046875 563.671875 1053.503906 550.441406 1065.644531 546.261719 Z M 1065.644531 546.261719 " clip-rule="nonzero"/></clipPath></defs><g clip-path="url(#41f01df5e8)"><g clip-path="url(#7d93ede7d7)"><g transform="matrix(1, 0, 0, 1, 365, 975)"><g clip-path="url(#330ebcdc10)"><g clip-path="url(#309bdb841f)"><g clip-path="url(#5b57b5e849)"><path fill="#8b66f0" d="M 0.738281 152.144531 L 0.738281 0.585938 L 651.367188 0.585938 L 651.367188 152.144531 Z M 0.738281 152.144531 " fill-opacity="1" fill-rule="nonzero"/></g></g></g></g></g></g><g clip-path="url(#11b1fcd846)"><g clip-path="url(#9c2b6cfd2c)"><path stroke-linecap="butt" transform="matrix(0, -0.75, 0.75, 0, 365.737473, 1127.144067)" fill="none" stroke-linejoin="miter" d="M 30.999386 0.0271193 L 171.067115 0.0271193 C 188.181701 0.0271193 202.061911 13.902121 202.061911 31.021916 L 202.061911 836.397037 C 202.061911 853.516831 188.181701 867.397041 171.067115 867.397041 L 30.999386 867.397041 C 13.879591 867.397041 -0.000619113 853.516831 -0.000619113 836.397037 L -0.000619113 31.021916 C -0.000619113 13.902121 13.879591 0.0271193 30.999386 0.0271193 Z M 30.999386 0.0271193 " stroke="#331d8e" stroke-width="48" stroke-opacity="1" stroke-miterlimit="4"/></g></g><g clip-path="url(#8146c32324)"><g clip-path="url(#1ffee97fd7)"><g transform="matrix(1, 0, 0, 1, 155, 817)"><g clip-path="url(#99d2b89685)"><g clip-path="url(#9abe62a32f)"><g clip-path="url(#ef6f464901)"><path fill="#8b66f0" d="M 0.871094 176.320312 L 0.871094 0.722656 L 754.707031 0.722656 L 754.707031 176.320312 Z M 0.871094 176.320312 " fill-opacity="1" fill-rule="nonzero"/></g></g></g></g></g></g><g clip-path="url(#7ac4862293)"><g clip-path="url(#dabc2ee1bf)"><path stroke-linecap="butt" transform="matrix(0, -0.75, 0.75, 0, 155.871759, 993.320174)" fill="none" stroke-linejoin="miter" d="M 30.999819 0.0095295 L 203.124833 0.0095295 C 220.244627 0.0095295 234.124836 13.884531 234.124836 31.009532 L 234.124836 974.009613 C 234.124836 991.129407 220.244627 1005.009616 203.124833 1005.009616 L 30.999819 1005.009616 C 13.880025 1005.009616 -0.000184077 991.129407 -0.000184077 974.009613 L -0.000184077 31.009532 C -0.000184077 13.884531 13.880025 0.0095295 30.999819 0.0095295 Z M 30.999819 0.0095295 " stroke="#331d8e" stroke-width="48" stroke-opacity="1" stroke-miterlimit="4"/></g></g><g clip-path="url(#19b04d1d9b)"><g clip-path="url(#e385feb6ed)"><g transform="matrix(1, 0, 0, 1, 77, 669)"><g clip-path="url(#e09de3f345)"><g clip-path="url(#a7fcfe85e3)"><g clip-path="url(#b762d26cf0)"><path fill="#8b66f0" d="M 0.417969 166.113281 L 0.417969 0.0390625 L 713.375 0.0390625 L 713.375 166.113281 Z M 0.417969 166.113281 " fill-opacity="1" fill-rule="nonzero"/></g></g></g></g></g></g><g clip-path="url(#9ea53d458c)"><g clip-path="url(#f3cd085ae4)"><path stroke-linecap="butt" transform="matrix(0, -0.75, 0.75, 0, 77.418461, 835.114012)" fill="none" stroke-linejoin="miter" d="M 30.995771 0.0201769 L 190.422878 0.0201769 C 207.542672 0.0201769 221.422883 13.900387 221.422883 31.020182 L 221.422883 919.494273 C 221.422883 936.614068 207.542672 950.494278 190.422878 950.494278 L 30.995771 950.494278 C 13.875977 950.494278 0.000974425 936.614068 0.000974425 919.494273 L 0.000974425 31.020182 C 0.000974425 13.900387 13.875977 0.0201769 30.995771 0.0201769 Z M 30.995771 0.0201769 " stroke="#331d8e" stroke-width="48" stroke-opacity="1" stroke-miterlimit="4"/></g></g><g clip-path="url(#d12a8ed66c)"><g clip-path="url(#9b5dfa4ced)"><g transform="matrix(1, 0, 0, 1, 186, 527)"><g clip-path="url(#9732daa2c3)"><g clip-path="url(#6815ce09e4)"><g clip-path="url(#8da9b3185e)"><path fill="#8b66f0" d="M 0.667969 157.804688 L 0.667969 0.230469 L 677.136719 0.230469 L 677.136719 157.804688 Z M 0.667969 157.804688 " fill-opacity="1" fill-rule="nonzero"/></g></g></g></g></g></g><g clip-path="url(#b78b106fb9)"><g clip-path="url(#9794d73892)"><path stroke-linecap="butt" transform="matrix(0, -0.75, 0.75, 0, 186.667899, 684.806225)" fill="none" stroke-linejoin="miter" d="M 30.996844 0.0157182 L 179.095815 0.0157182 C 196.215609 0.0157182 210.095818 13.895928 210.095818 31.015721 L 210.095818 870.859543 C 210.095818 887.979336 196.215609 901.859546 179.095815 901.859546 L 30.996844 901.859546 C 13.877051 901.859546 0.00205002 887.979336 0.00205002 870.859543 L 0.00205002 31.015721 C 0.00205002 13.895928 13.877051 0.0157182 30.996844 0.0157182 Z M 30.996844 0.0157182 " stroke="#331d8e" stroke-width="48" stroke-opacity="1" stroke-miterlimit="4"/></g></g><g clip-path="url(#2402c358f2)"><g clip-path="url(#cfd00e48d0)"><g clip-path="url(#8db64fa58e)"><g transform="matrix(1, 0, 0, 1, 758, 209)"><g clip-path="url(#f5f1d53094)"><g clip-path="url(#12783d3586)"><g clip-path="url(#ef105b79be)"><g clip-path="url(#53f70ec46b)"><path fill="#8b66f0" d="M -6.015625 59.433594 L 184.308594 -5.785156 L 481.359375 861.085938 L 291.035156 926.304688 Z M -6.015625 59.433594 " fill-opacity="1" fill-rule="nonzero"/></g></g></g></g></g></g></g></g><g clip-path="url(#d9bce095ff)"><g clip-path="url(#04fec62f91)"><g clip-path="url(#15741c3ca9)"><g clip-path="url(#04bd53737a)"><path stroke-linecap="butt" transform="matrix(0.7095, -0.243125, 0.243125, 0.7095, 751.983065, 268.433806)" fill="none" stroke-linejoin="miter" d="M 30.998089 0.00145087 L 237.250088 0.00201568 C 245.470668 0.0000781137 253.357477 3.269734 259.172358 9.083233 C 264.982311 14.895044 268.24827 22.78062 268.250207 31.0012 L 268.249102 1190.405495 C 268.25104 1198.626076 264.983072 1206.507958 259.169573 1212.322838 C 253.356074 1218.137719 245.470498 1221.403677 237.249917 1221.405615 L 30.997919 1221.40505 C 22.779027 1221.40206 14.890529 1218.137332 9.080576 1212.325521 C 3.265695 1206.512022 -0.000263309 1198.626446 -0.000512509 1190.400938 L -0.00109568 31.001571 C 0.00189384 22.782678 3.266623 14.894181 9.078433 9.084227 C 14.891933 3.269347 22.777508 0.00338844 30.998089 0.00145087 Z M 30.998089 0.00145087 " stroke="#331d8e" stroke-width="48" stroke-opacity="1" stroke-miterlimit="4"/></g></g></g></g><g clip-path="url(#86c79b3c11)"><g clip-path="url(#0a3559f182)"><g clip-path="url(#db071007b2)"><g transform="matrix(1, 0, 0, 1, 1049, 513)"><g clip-path="url(#59f80299c3)"><g clip-path="url(#019fe433c1)"><g clip-path="url(#e06e95a13a)"><g clip-path="url(#e3f1d2a152)"><path fill="#8b66f0" d="M -5.34375 40.8125 L 130.101562 -5.8125 L 330.253906 575.660156 L 194.808594 622.28125 Z M -5.34375 40.8125 " fill-opacity="1" fill-rule="nonzero"/></g></g></g></g></g></g></g></g><g clip-path="url(#25f512e1e6)"><g clip-path="url(#0429f24c2a)"><g clip-path="url(#998451173c)"><g clip-path="url(#8911c0d098)"><path stroke-linecap="butt" transform="matrix(0.709163, -0.244107, 0.244107, 0.709163, 1043.655423, 553.81246)" fill="none" stroke-linejoin="miter" d="M 30.999192 0.0230765 L 159.986768 0.0208687 C 177.106715 0.0200284 190.984677 13.902218 190.985517 31.022165 L 190.986419 788.837234 C 190.985564 805.962106 177.10507 819.835143 159.985123 819.835983 L 30.997547 819.838191 C 13.8776 819.839032 -0.000362494 805.956842 -0.00120274 788.836895 L -0.00210477 31.021826 C -0.00294502 13.901879 13.879245 0.0239167 30.999192 0.0230765 Z M 30.999192 0.0230765 " stroke="#331d8e" stroke-width="48" stroke-opacity="1" stroke-miterlimit="4"/></g></g></g></g></svg>
